<svg width="219" height="46" viewBox="0 0 219 46" fill="none" xmlns="http://www.w3.org/2000/svg">
<g clip-path="url(#clip0_4191_712)">
<path d="M28.6593 7.4865C29.38 8.15438 27.2509 8.87163 26.8762 9.00192C26.172 9.2474 23.2426 9.77677 23.0765 10.4309C22.8446 11.3457 25.0079 11.3073 25.5309 11.1578L22.2392 13.1491C22.0525 13.9925 25.8357 13.1491 24.9832 14.6549C20.4368 15.7808 16.0236 17.5458 11.3976 18.3618C8.87042 18.8075 6.46407 19.1271 9.60756 16.3692C7.63636 15.885 5.59926 16.9753 3.63904 16.7765C0.815387 16.4912 3.2286 14.5068 4.26637 13.7045C6.31719 12.1191 9.55815 10.66 11.3221 8.9594C12.5506 7.7745 11.0503 7.88559 10.1566 8.06799C7.63499 8.58227 5.03783 9.72465 2.4997 10.2924C1.67333 10.4776 0.857941 10.6942 0 10.6051C2.09063 7.80604 6.07422 6.23715 9.30008 5.01796C13.2123 3.54094 21.1877 0.913312 25.1905 0.596516C25.6325 0.56223 28.3368 0.423717 27.4541 1.34942C24.0731 3.24746 20.6208 5.07144 17.362 7.17382C16.5974 7.66753 13.6365 9.5354 13.3825 10.2019C12.9707 11.2881 15.0984 10.7916 15.6186 10.6435C17.8479 10.0099 19.535 8.53975 22.2117 7.90479C23.4389 7.61405 27.789 6.67737 28.658 7.48376L28.6593 7.4865Z" fill="#E12227"/>
<path d="M35.6258 16.5048C33.9511 16.2978 33.089 15.1732 33.3622 13.4877C35.6436 14.8303 38.7349 14.8386 41.3225 14.7892L47.5656 4.97535C47.8044 4.48027 47.313 3.97285 46.9533 3.67937C46.1517 3.02246 44.4248 2.60692 43.7989 2.03092C43.6753 1.9171 43.6135 1.89241 43.6561 1.69493C44.0281 1.16693 48.0954 1.92533 48.8284 2.21607C50.0392 2.69606 50.6679 4.03456 51.276 5.11935C53.7565 9.54079 55.5547 14.5177 58.0448 18.9281C58.5101 19.7523 59.5973 21.6353 60.3276 22.1331C60.5459 22.2812 61.1622 22.262 61.0867 22.6063C60.318 23.34 58.6241 24.3548 57.7332 23.3537C54.602 17.3606 51.7825 11.2112 48.3192 5.39775L48.0364 5.48278L42.6938 14.8591H52.2341L52.3728 15.1334C52.2273 15.4557 50.963 15.6093 50.569 15.6642C47.7413 16.0619 44.7199 15.9892 41.8702 16.2991C40.7116 17.9722 39.6231 19.7112 38.4124 21.3473C37.3636 22.764 33.6298 27.6311 32.0457 27.878C30.6689 28.0919 29.1658 26.6122 28.8281 25.3532C28.916 24.9308 29.9332 25.5877 30.172 25.6549C31.3086 25.9799 32.463 25.057 33.3471 24.3781C35.9799 22.358 38.3918 19.249 40.2216 16.5035C38.772 16.3746 37.0355 16.679 35.623 16.5035L35.6258 16.5048Z" fill="#9B458B"/>
<path d="M151.413 24.322C150.875 24.3536 149.882 24.152 149.768 23.565C149.563 17.5335 150.031 11.3347 149.771 5.32245C149.696 3.56841 149.318 1.80614 149.354 0.0479857C149.607 -0.20024 151.659 0.589695 151.922 0.910606C152.363 1.44546 151.992 3.75766 151.963 4.50783C151.767 9.65749 151.53 14.7921 151.479 19.9362C151.634 20.157 151.699 19.9884 151.87 19.9129C153.887 19.0215 156.904 16.6983 158.488 15.1404C159.524 14.1214 160.53 12.5827 161.564 11.6323C162.606 10.6751 162.94 12.6143 162.742 13.3562C162.359 14.8003 158.212 17.0645 156.938 17.9792C156.842 18.0478 156.705 17.9546 156.767 18.2192C159.435 20.0761 161.697 23.2222 165.003 23.8448C163.846 26.5725 162.812 25.8155 160.898 24.514C158.71 23.026 156.716 21.1362 154.572 19.5769C154.007 19.4014 152.105 20.6316 151.412 20.7577V24.3234L151.413 24.322Z" fill="#9B458B"/>
<path d="M103.475 12.1575C105.138 12.0176 109.689 11.7461 108.447 14.5273C108.18 14.6919 107.487 14.094 107.207 13.9705C105.219 13.0956 101.814 12.5292 99.837 13.5975C98.4904 14.3257 98.3298 16.0496 99.9812 16.5269C101.753 17.0384 104.016 16.9753 105.867 17.3662C107.53 17.7172 109.14 18.189 108.823 20.2448C108.286 23.724 102.532 24.4879 99.7217 24.3288C98.8624 24.2808 97.2152 24.1094 96.6373 23.4333C96.3476 23.0946 95.9399 21.7341 96.4492 21.5846C96.6551 21.5243 99.8165 22.8628 100.484 23.0191C102.887 23.5828 107.141 23.8324 106.515 20.146C106.313 18.957 104.403 18.8308 103.417 18.7156C101.903 18.5374 97.6737 18.6471 96.7732 17.3991C96.6716 17.2578 96.6016 17.0933 96.5618 16.9259C95.7519 13.5577 101.088 12.3578 103.476 12.1575H103.475Z" fill="#9B458B"/>
<path d="M189.981 14.5849C187.635 13.3301 184.572 12.4881 181.946 13.3438C180.338 13.8677 179.362 15.7945 181.304 16.4679C183.332 17.1714 188.342 16.952 189.781 18.285C190.101 18.5812 190.228 19.027 190.264 19.4466C190.658 23.9929 182.787 24.8239 179.652 24.1533C178.172 23.8365 177.583 23.1302 177.767 21.5805C179.145 21.8713 180.398 22.6324 181.799 22.9698C183.362 23.3469 187.078 23.8516 187.817 21.9536C188.075 21.2925 188.231 20.2009 187.769 19.6112C186.959 18.5785 182.208 18.6196 180.755 18.3893C179.303 18.1589 177.693 17.8421 177.961 15.9536C178.44 12.5813 185.351 11.8572 187.991 12.1191C189.436 12.2631 190.585 12.9735 189.981 14.5863V14.5849Z" fill="#9B458B"/>
<path d="M144.959 14.4475C144.035 14.3309 143.156 13.9647 142.243 13.8015C139.689 13.3448 137.228 13.3805 135.149 15.1359C132.781 17.1327 131.983 21.321 135.416 22.6787C138.129 23.7511 141.102 23.4138 143.761 22.3688C144.569 22.0506 145.591 21.3224 146.409 21.1743C147.227 21.0261 146.31 21.9546 146.015 22.1534C144.287 23.3205 139.729 24.2119 137.621 24.3271C135.477 24.4437 130.947 24.3052 130.558 21.4979C129.923 16.9133 135.433 13.2091 139.356 12.3451C141.179 11.9446 145.418 11.5428 144.959 14.4475Z" fill="#9B458B"/>
<path d="M77.4926 14.722C76.9161 14.5999 76.2956 13.2052 76.8172 13.0914L80.4439 13.4891L80.3053 5.94495C81.1962 5.87638 82.2504 6.22609 82.7542 7.00505L82.0898 13.4891L86.8943 13.352C87.0027 13.8731 86.4729 14.002 86.0761 14.1104C84.827 14.4518 83.4666 14.36 82.2106 14.6644C82.1351 14.7673 81.969 16.5295 81.9539 16.8491C81.888 18.1711 81.969 19.5274 81.958 20.8193C81.9539 21.3267 82.0486 24.1052 81.8235 24.2616C81.317 24.4796 79.947 24.1587 79.8921 23.5649L80.4426 14.722C79.5887 14.5986 78.2792 14.8893 77.4912 14.722H77.4926Z" fill="#9B458B"/>
<path d="M112.223 14.7222C111.98 14.681 111.719 14.489 111.571 14.2765C111.432 14.0776 111.013 13.1601 111.406 13.0847L115.037 13.4879L114.959 6.07404C115.295 5.59404 117.283 6.43472 117.372 7.11905L116.747 13.4961L121.487 13.3521C121.596 13.8746 121.066 14.0022 120.669 14.1105C119.476 14.4369 118.062 14.4177 116.835 14.6001C116.375 17.6995 116.596 20.8497 116.545 23.9792L116.416 24.2617C116.058 24.5113 114.617 24.1452 114.506 23.6789L115.033 18.0808V14.7222C114.179 14.6207 113.034 14.8607 112.22 14.7222H112.223Z" fill="#9B458B"/>
<path d="M71.6521 14.8605L71.3693 14.9456C69.9417 17.3167 67.7165 19.6344 66.7886 22.2717C66.6911 22.5473 66.5044 23.702 66.4207 23.7555C66.072 23.9791 64.9107 23.606 64.8242 23.1411L65.35 17.6733C65.3623 16.9026 64.8572 13.4205 65.1894 12.9968C65.5984 12.4743 67.2676 13.1531 67.3967 13.8347C67.4584 14.1638 67.4214 14.8372 67.3967 15.2006C67.2814 16.9437 66.7611 18.8623 66.5758 20.6191C66.9409 20.6945 66.8119 20.5286 66.9176 20.3489C67.4941 19.3629 68.0089 18.3645 68.6609 17.4223C69.313 16.4802 70.8751 14.9264 71.2526 14.1145C71.5697 13.4329 71.4763 12.7101 72.0076 11.9888C72.1956 11.7337 73.1346 10.8889 73.3748 11.2907C73.4901 11.4827 73.6823 12.9543 73.8456 13.426C74.1984 14.4409 74.8656 15.767 76.0461 15.8905C76.5691 16.2415 75.4325 16.5926 75.1428 16.6324C73.7605 16.8217 72.1545 16.2498 71.6521 14.8633V14.8605Z" fill="#9B458B"/>
<path d="M91.4245 24.3232C90.9812 24.3795 89.6689 24.145 89.5288 23.6787C89.3037 19.8703 89.9681 15.7711 88.8164 12.1176C89.4286 11.997 91.4891 12.4235 91.673 13.0338L91.4259 24.3219L91.4245 24.3232Z" fill="#9B458B"/>
<path d="M126.014 24.3232C125.606 24.422 124.247 24.0736 124.114 23.6828C123.945 19.825 124.467 15.8904 123.543 12.1177C124.283 12.0354 126.28 12.4509 126.401 13.3108L126.008 19.3107L126.014 24.3232Z" fill="#9B458B"/>
<path d="M169.668 10.3321C170.275 8.72755 170.958 7.15453 171.516 5.52804C171.857 4.52965 172.286 2.25858 172.719 1.51939C173.351 0.440087 174.588 2.0035 174.562 2.83869C174.538 3.58337 173.406 5.57878 172.986 6.31111C172.537 7.09419 171.955 7.99933 171.426 8.73029C171.214 9.02514 170.083 10.723 169.668 10.3321Z" fill="#E12227"/>
<path d="M208.644 24.038C208.005 24.1642 206.394 23.8392 206.117 23.2234C205.938 22.8284 205.948 19.81 206.321 19.5823C206.634 19.3917 208.454 19.8319 208.689 20.3805C208.854 20.7658 208.836 23.8707 208.645 24.038H208.644Z" fill="#9B458B"/>
<path d="M198.495 24.0478C197.975 24.1876 195.887 23.7666 195.887 23.1563V19.8649C195.887 19.2108 198.495 19.8595 198.495 20.2764V24.0478Z" fill="#9B458B"/>
<path d="M216.34 19.7276C216.446 19.3724 218.045 19.7482 218.36 19.9032C219.345 20.3873 218.944 23.0725 218.791 24.027C217.936 24.1216 216.958 23.9461 216.34 23.2919V19.7262V19.7276Z" fill="#9B458B"/>
<path d="M91.4014 8.6684C90.8825 8.80828 89.8283 8.46131 89.5991 7.96898C89.4934 7.73995 89.374 6.14499 89.3561 5.74454C89.3438 5.48123 89.2875 4.77769 89.4947 4.63232C89.9985 4.68992 91.1214 4.88329 91.3946 5.35232C91.6266 5.7514 91.6554 8.50794 91.4014 8.66703V8.6684Z" fill="#9B458B"/>
<path d="M126.153 8.48196C126.002 8.96744 124.551 8.45316 124.308 8.13087C123.934 7.63716 124.086 5.44427 123.957 4.70919C124.451 4.546 126.153 5.04382 126.153 5.60061V8.48058V8.48196Z" fill="#9B458B"/>
<path d="M28.3709 43.8084C28.2981 43.8084 28.235 43.7841 28.18 43.7356C28.1251 43.6871 28.0977 43.6314 28.0977 43.5671C28.0977 43.5271 28.1073 43.4822 28.1251 43.4349L31.5782 35.6119C31.6139 35.5319 31.662 35.4712 31.721 35.4312C31.78 35.3912 31.8638 35.3706 31.9736 35.3706H32.4377C32.5462 35.3706 32.6313 35.3912 32.6903 35.4312C32.7494 35.4712 32.7974 35.5319 32.8331 35.6119L36.2862 43.4349C36.304 43.4834 36.3137 43.5271 36.3137 43.5671C36.3137 43.6314 36.2862 43.6871 36.2313 43.7356C36.1764 43.7841 36.1132 43.8084 36.0404 43.8084H35.7672C35.6766 43.8084 35.6079 43.7866 35.5626 43.7417C35.5173 43.6981 35.4857 43.6593 35.4665 43.6277L34.6208 41.6986H29.7892L28.9434 43.6277C28.9338 43.6605 28.905 43.6981 28.8542 43.7417C28.8047 43.7866 28.7334 43.8084 28.6427 43.8084H28.3695H28.3709ZM30.1173 40.976H34.294L32.2057 36.2266L30.1173 40.976Z" fill="#3F3F3F"/>
<path d="M38.0468 43.8077C37.9562 43.8077 37.8834 43.7834 37.8285 43.7349C37.7736 43.6864 37.7461 43.6222 37.7461 43.5421V37.8167C37.7461 37.7367 37.7736 37.67 37.8285 37.6179C37.8834 37.5657 37.9562 37.5391 38.0468 37.5391H38.2651C38.3557 37.5391 38.4312 37.5657 38.4903 37.6179C38.5493 37.67 38.5795 37.7367 38.5795 37.8167V38.3708C38.7429 38.0895 38.9804 37.881 39.2893 37.744C39.5983 37.607 39.9813 37.5391 40.4358 37.5391H40.9411C41.0317 37.5391 41.1044 37.5633 41.1594 37.6118C41.2143 37.6603 41.2417 37.7246 41.2417 37.8046V37.9731C41.2417 38.0532 41.2143 38.1174 41.1594 38.1659C41.1044 38.2144 41.0317 38.2387 40.9411 38.2387H40.3534C39.807 38.2387 39.3758 38.3793 39.0573 38.6606C38.7388 38.9419 38.5795 39.3239 38.5795 39.8052V43.5421C38.5795 43.6222 38.5493 43.6864 38.4903 43.7349C38.4312 43.7834 38.3557 43.8077 38.2651 43.8077H38.0468Z" fill="#3F3F3F"/>
<path d="M44.8851 43.8081C44.4114 43.8081 44.0393 43.7195 43.7661 43.5425C43.4929 43.3655 43.302 43.1242 43.1922 42.8199C43.0837 42.5143 43.0288 42.1736 43.0288 41.7953V38.239H41.9647C41.8741 38.239 41.8014 38.2148 41.7464 38.1663C41.6915 38.1178 41.6641 38.0535 41.6641 37.9735V37.805C41.6641 37.725 41.6915 37.6607 41.7464 37.6122C41.8014 37.5637 41.8741 37.5394 41.9647 37.5394H43.0288V35.5146C43.0288 35.4345 43.0563 35.3703 43.1112 35.3218C43.1661 35.2733 43.2389 35.249 43.3295 35.249H43.5615C43.6522 35.249 43.7249 35.2733 43.7798 35.3218C43.8348 35.3703 43.8622 35.4345 43.8622 35.5146V37.5394H45.5551C45.6457 37.5394 45.7185 37.5637 45.7734 37.6122C45.8284 37.6607 45.8558 37.725 45.8558 37.805V37.9735C45.8558 38.0535 45.8284 38.1178 45.7734 38.1663C45.7185 38.2148 45.6457 38.239 45.5551 38.239H43.8622V41.7468C43.8622 42.1724 43.9419 42.5058 44.1011 42.7471C44.2604 42.9884 44.5446 43.1084 44.9538 43.1084H45.6911C45.7817 43.1084 45.8544 43.1327 45.9094 43.1812C45.9643 43.2297 45.9917 43.294 45.9917 43.374V43.5425C45.9917 43.6225 45.9643 43.6868 45.9094 43.7353C45.8544 43.7838 45.7817 43.8081 45.6911 43.8081H44.8851Z" fill="#3F3F3F"/>
<path d="M51.8868 43.8078C51.7962 43.8078 51.7234 43.7836 51.6685 43.7351C51.6136 43.6866 51.5861 43.6223 51.5861 43.5423V38.2388H50.371C50.2804 38.2388 50.2076 38.2145 50.1527 38.166C50.0978 38.1175 50.0703 38.0533 50.0703 37.9733V37.8047C50.0703 37.7247 50.0978 37.6604 50.1527 37.6119C50.2076 37.5634 50.2804 37.5392 50.371 37.5392H51.5861V36.8517C51.5861 36.4904 51.6424 36.1606 51.7564 35.8635C51.8703 35.5664 52.0749 35.3288 52.3701 35.1518C52.6653 34.9747 53.0909 34.8862 53.647 34.8862H54.3568C54.4474 34.8862 54.5202 34.9105 54.5751 34.959C54.63 35.0075 54.6575 35.0717 54.6575 35.1518V35.3203C54.6575 35.4003 54.63 35.4646 54.5751 35.5131C54.5202 35.5616 54.4474 35.5858 54.3568 35.5858H53.647C53.165 35.5858 52.8396 35.6998 52.6708 35.929C52.5019 36.1581 52.4181 36.4855 52.4181 36.9111V37.538H54.2195C54.3101 37.538 54.3829 37.5622 54.4378 37.6107C54.4927 37.6592 54.5202 37.7235 54.5202 37.8035V37.972C54.5202 38.0521 54.4927 38.1163 54.4378 38.1648C54.3829 38.2133 54.3101 38.2376 54.2195 38.2376H52.4181V43.5411C52.4181 43.6211 52.3907 43.6853 52.3358 43.7338C52.2808 43.7823 52.2081 43.8066 52.1174 43.8066H51.8854L51.8868 43.8078Z" fill="#3F3F3F"/>
<path d="M58.5361 43.9281C57.8812 43.9281 57.332 43.8081 56.8913 43.5668C56.4492 43.3255 56.1128 42.9957 55.8807 42.5786C55.6487 42.1603 55.5238 41.6947 55.5059 41.1806C55.4963 41.0606 55.4922 40.8908 55.4922 40.6738C55.4922 40.4567 55.4963 40.2882 55.5059 40.167C55.5238 39.6444 55.6487 39.1763 55.8807 38.7629C56.1128 38.3494 56.4492 38.022 56.8913 37.7808C57.332 37.5395 57.8812 37.4194 58.5361 37.4194C59.191 37.4194 59.7389 37.5395 60.181 37.7808C60.6231 38.022 60.9595 38.3494 61.1915 38.7629C61.4235 39.1776 61.5485 39.6444 61.5663 40.167C61.5759 40.287 61.58 40.4567 61.58 40.6738C61.58 40.8908 61.5759 41.0594 61.5663 41.1806C61.5485 41.6947 61.4235 42.1615 61.1915 42.5786C60.9595 42.9969 60.6231 43.3255 60.181 43.5668C59.7389 43.8081 59.191 43.9281 58.5361 43.9281ZM58.5361 43.2297C59.1732 43.2297 59.6922 43.0491 60.0917 42.6877C60.4926 42.3264 60.7055 41.8038 60.7329 41.1212C60.7425 41.0012 60.7466 40.852 60.7466 40.675C60.7466 40.498 60.7425 40.35 60.7329 40.2288C60.7055 39.5377 60.4913 39.0139 60.0917 38.6562C59.6908 38.2985 59.1718 38.1203 58.5361 38.1203C57.9004 38.1203 57.3801 38.2997 56.9805 38.6562C56.5796 39.0139 56.3668 39.5377 56.3393 40.2288C56.3297 40.3488 56.3256 40.498 56.3256 40.675C56.3256 40.852 56.3297 40.9999 56.3393 41.1212C56.3668 41.8038 56.5796 42.3264 56.9805 42.6877C57.3814 43.0491 57.899 43.2297 58.5361 43.2297Z" fill="#3F3F3F"/>
<path d="M63.7538 43.8077C63.6632 43.8077 63.5904 43.7834 63.5355 43.7349C63.4806 43.6864 63.4531 43.6222 63.4531 43.5421V37.8167C63.4531 37.7367 63.4806 37.67 63.5355 37.6179C63.5904 37.5657 63.6632 37.5391 63.7538 37.5391H63.9721C64.0627 37.5391 64.1382 37.5657 64.1973 37.6179C64.2563 37.67 64.2865 37.7367 64.2865 37.8167V38.3708C64.4499 38.0895 64.6874 37.881 64.9964 37.744C65.3053 37.607 65.6884 37.5391 66.1428 37.5391H66.6481C66.7387 37.5391 66.8115 37.5633 66.8664 37.6118C66.9213 37.6603 66.9488 37.7246 66.9488 37.8046V37.9731C66.9488 38.0532 66.9213 38.1174 66.8664 38.1659C66.8115 38.2144 66.7387 38.2387 66.6481 38.2387H66.0604C65.514 38.2387 65.0829 38.3793 64.7643 38.6606C64.4458 38.9419 64.2865 39.3239 64.2865 39.8052V43.5421C64.2865 43.6222 64.2563 43.6864 64.1973 43.7349C64.1382 43.7834 64.0627 43.8077 63.9721 43.8077H63.7538Z" fill="#3F3F3F"/>
<path d="M73.6314 43.9281C73.1948 43.9281 72.7925 43.8481 72.4232 43.6868C72.0539 43.5256 71.7559 43.311 71.5294 43.0418C71.3015 42.7726 71.1875 42.4695 71.1875 42.1312C71.1875 41.5844 71.4374 41.1466 71.9385 40.8168C72.4383 40.487 73.0891 40.2749 73.8909 40.1779L76.0479 39.9123V39.4904C76.0479 39.0648 75.8996 38.7289 75.6044 38.484C75.3092 38.2391 74.8383 38.1166 74.1916 38.1166C73.7179 38.1166 73.3362 38.1991 73.0452 38.364C72.7541 38.5289 72.5536 38.7435 72.4452 39.009C72.3999 39.129 72.3134 39.1897 72.1857 39.1897H71.9674C71.8575 39.1897 71.7806 39.1642 71.7353 39.1109C71.69 39.0587 71.6667 38.9957 71.6667 38.9241C71.6667 38.8114 71.7147 38.6707 71.8095 38.5022C71.9056 38.3336 72.0525 38.1663 72.2529 38.0014C72.4534 37.8365 72.7129 37.6983 73.0314 37.5855C73.35 37.4728 73.7372 37.417 74.1916 37.417C74.7285 37.417 75.1719 37.4813 75.522 37.6098C75.8722 37.7383 76.1454 37.9056 76.3404 38.1105C76.5353 38.3155 76.6754 38.5422 76.7564 38.792C76.8387 39.0405 76.8799 39.2867 76.8799 39.5267V43.5413C76.8799 43.6214 76.8525 43.6856 76.7976 43.7341C76.7426 43.7826 76.6699 43.8069 76.5793 43.8069H76.3472C76.2566 43.8069 76.1838 43.7826 76.1289 43.7341C76.074 43.6856 76.0465 43.6214 76.0465 43.5413V42.9751C75.9367 43.1194 75.7829 43.2649 75.5825 43.4092C75.382 43.5535 75.1253 43.6771 74.8108 43.7766C74.4964 43.8772 74.1037 43.9269 73.6301 43.9269L73.6314 43.9281ZM73.7674 43.2297C74.1861 43.2297 74.5678 43.1497 74.9138 42.9884C75.2598 42.8284 75.5344 42.581 75.739 42.2476C75.9436 41.9142 76.0465 41.4946 76.0465 40.9878V40.578L74.285 40.795C73.5381 40.8835 72.9751 41.0363 72.5921 41.2533C72.2104 41.4704 72.0195 41.7432 72.0195 42.073C72.0195 42.3385 72.106 42.5556 72.279 42.7241C72.452 42.8926 72.6731 43.02 72.9408 43.1036C73.2099 43.1885 73.4845 43.2297 73.7674 43.2297Z" fill="#3F3F3F"/>
<path d="M79.3358 43.8077C79.2452 43.8077 79.1725 43.7834 79.1175 43.7349C79.0626 43.6864 79.0352 43.6222 79.0352 43.5421V37.8167C79.0352 37.7367 79.0626 37.67 79.1175 37.6179C79.1725 37.5657 79.2452 37.5391 79.3358 37.5391H79.5541C79.6448 37.5391 79.7203 37.5657 79.7793 37.6179C79.8384 37.67 79.8686 37.7367 79.8686 37.8167V38.3708C80.032 38.0895 80.2695 37.881 80.5784 37.744C80.8873 37.607 81.2704 37.5391 81.7248 37.5391H82.2301C82.3207 37.5391 82.3935 37.5633 82.4484 37.6118C82.5033 37.6603 82.5308 37.7246 82.5308 37.8046V37.9731C82.5308 38.0532 82.5033 38.1174 82.4484 38.1659C82.3935 38.2144 82.3207 38.2387 82.2301 38.2387H81.6425C81.096 38.2387 80.6649 38.3793 80.3464 38.6606C80.0278 38.9419 79.8686 39.3239 79.8686 39.8052V43.5421C79.8686 43.6222 79.8384 43.6864 79.7793 43.7349C79.7203 43.7834 79.6448 43.8077 79.5541 43.8077H79.3358Z" fill="#3F3F3F"/>
<path d="M86.4794 43.9281C85.8423 43.9281 85.3014 43.8178 84.8552 43.5971C84.4089 43.3764 84.0698 43.0563 83.8378 42.6392C83.6057 42.2209 83.4808 41.7274 83.4629 41.1564C83.4533 41.0363 83.4492 40.8751 83.4492 40.6738C83.4492 40.4725 83.4533 40.3125 83.4629 40.1912C83.4808 39.6128 83.6057 39.1169 83.8378 38.7023C84.0698 38.2888 84.4089 37.9711 84.8552 37.7504C85.3014 37.5298 85.8423 37.4194 86.4794 37.4194C86.9613 37.4194 87.3774 37.4776 87.7288 37.594C88.079 37.7104 88.3687 37.8632 88.5952 38.0524C88.8231 38.2415 88.9961 38.4488 89.1142 38.6732C89.2323 38.8987 89.2968 39.1194 89.305 39.3364C89.3133 39.4164 89.2872 39.4807 89.2227 39.5292C89.1595 39.5777 89.0867 39.6019 89.0044 39.6019H88.8135C88.7229 39.6019 88.657 39.5837 88.6158 39.5474C88.5746 39.511 88.532 39.4443 88.4854 39.3485C88.2945 38.8902 88.0323 38.5713 87.7 38.3906C87.3677 38.21 86.96 38.119 86.478 38.119C85.8588 38.119 85.3467 38.2864 84.943 38.6198C84.538 38.9532 84.3224 39.4977 84.295 40.253C84.2771 40.5343 84.2771 40.8156 84.295 41.0969C84.3224 41.8523 84.538 42.3967 84.943 42.7302C85.3481 43.0636 85.8602 43.2297 86.478 43.2297C86.96 43.2297 87.3677 43.1388 87.7 42.9581C88.0323 42.7775 88.2931 42.4574 88.4854 42.0003C88.5307 41.9033 88.5746 41.8378 88.6158 41.8014C88.657 41.765 88.7229 41.7468 88.8135 41.7468H89.0044C89.0867 41.7468 89.1595 41.7711 89.2227 41.8196C89.2858 41.8681 89.3133 41.9324 89.305 42.0124C89.2954 42.1894 89.2542 42.3664 89.1815 42.5435C89.1087 42.7205 88.9975 42.8927 88.8465 43.0612C88.6954 43.2297 88.5114 43.3789 88.2931 43.5074C88.0748 43.6359 87.8126 43.739 87.5078 43.8154C87.203 43.8918 86.8597 43.9293 86.4767 43.9293L86.4794 43.9281Z" fill="#3F3F3F"/>
<path d="M91.4218 43.8081C91.3312 43.8081 91.2584 43.7838 91.2035 43.7353C91.1486 43.6868 91.1211 43.6225 91.1211 43.5425V35.5146C91.1211 35.4345 91.1486 35.3703 91.2035 35.3218C91.2584 35.2733 91.3312 35.249 91.4218 35.249H91.6538C91.7444 35.249 91.8172 35.2733 91.8721 35.3218C91.927 35.3703 91.9545 35.4345 91.9545 35.5146V38.3712C92.2003 38.0899 92.4982 37.8607 92.8483 37.6837C93.1984 37.5067 93.6653 37.4182 94.2474 37.4182C94.8666 37.4182 95.3829 37.537 95.7961 37.7734C96.2094 38.0111 96.5197 38.3324 96.7243 38.7374C96.9289 39.1436 97.0318 39.6031 97.0318 40.1172V43.5401C97.0318 43.6201 97.0044 43.6844 96.9495 43.7329C96.8945 43.7814 96.8218 43.8056 96.7311 43.8056H96.4991C96.4085 43.8056 96.3357 43.7814 96.2808 43.7329C96.2259 43.6844 96.1984 43.6201 96.1984 43.5401V40.1766C96.1984 39.534 96.0213 39.0296 95.6657 38.6634C95.3115 38.2972 94.7925 38.1154 94.1101 38.1154C93.4634 38.1154 92.9431 38.2985 92.5476 38.6634C92.1522 39.0296 91.9545 39.5328 91.9545 40.1766V43.5401C91.9545 43.6201 91.927 43.6844 91.8721 43.7329C91.8172 43.7814 91.7444 43.8056 91.6538 43.8056H91.4218V43.8081Z" fill="#3F3F3F"/>
<path d="M99.3241 36.2505C99.2335 36.2505 99.1607 36.2263 99.1058 36.1778C99.0509 36.1293 99.0234 36.065 99.0234 35.985V35.5267C99.0234 35.4467 99.0509 35.38 99.1058 35.3278C99.1607 35.2757 99.2335 35.249 99.3241 35.249H99.8431C99.9337 35.249 100.009 35.2757 100.068 35.3278C100.127 35.38 100.158 35.4467 100.158 35.5267V35.985C100.158 36.065 100.127 36.1293 100.068 36.1778C100.009 36.2263 99.9337 36.2505 99.8431 36.2505H99.3241ZM99.4738 43.8081C99.3832 43.8081 99.3104 43.7838 99.2555 43.7353C99.2006 43.6868 99.1731 43.6225 99.1731 43.5425V37.805C99.1731 37.725 99.2006 37.6607 99.2555 37.6122C99.3104 37.5637 99.3832 37.5394 99.4738 37.5394H99.7058C99.7964 37.5394 99.8692 37.5637 99.9241 37.6122C99.979 37.6607 100.006 37.725 100.006 37.805V43.5425C100.006 43.6225 99.979 43.6868 99.9241 43.7353C99.8692 43.7838 99.7964 43.8081 99.7058 43.8081H99.4738Z" fill="#3F3F3F"/>
<path d="M104.604 43.8081C104.13 43.8081 103.758 43.7195 103.485 43.5425C103.212 43.3655 103.021 43.1242 102.911 42.8199C102.802 42.5143 102.748 42.1736 102.748 41.7953V38.239H101.683C101.593 38.239 101.52 38.2148 101.465 38.1663C101.41 38.1178 101.383 38.0535 101.383 37.9735V37.805C101.383 37.725 101.41 37.6607 101.465 37.6122C101.52 37.5637 101.593 37.5394 101.683 37.5394H102.748V35.5146C102.748 35.4345 102.775 35.3703 102.83 35.3218C102.885 35.2733 102.958 35.249 103.048 35.249H103.28C103.371 35.249 103.444 35.2733 103.499 35.3218C103.554 35.3703 103.581 35.4345 103.581 35.5146V37.5394H105.274C105.364 37.5394 105.437 37.5637 105.492 37.6122C105.547 37.6607 105.575 37.725 105.575 37.805V37.9735C105.575 38.0535 105.547 38.1178 105.492 38.1663C105.437 38.2148 105.364 38.239 105.274 38.239H103.581V41.7468C103.581 42.1724 103.661 42.5058 103.82 42.7471C103.979 42.9884 104.263 43.1084 104.673 43.1084H105.41C105.5 43.1084 105.573 43.1327 105.628 43.1812C105.683 43.2297 105.71 43.294 105.71 43.374V43.5425C105.71 43.6225 105.683 43.6868 105.628 43.7353C105.573 43.7838 105.5 43.8081 105.41 43.8081H104.604Z" fill="#3F3F3F"/>
<path d="M109.749 43.9281C108.866 43.9281 108.166 43.6735 107.647 43.163C107.128 42.6526 106.833 41.9833 106.76 41.1564C106.75 41.0363 106.746 40.8751 106.746 40.6738C106.746 40.4725 106.75 40.3125 106.76 40.1912C106.805 39.6444 106.951 39.163 107.196 38.7447C107.442 38.3264 107.781 38.0014 108.214 37.7686C108.646 37.5358 109.158 37.4194 109.749 37.4194C110.386 37.4194 110.927 37.5443 111.373 37.7929C111.819 38.0427 112.163 38.3991 112.404 38.8659C112.644 39.3315 112.765 39.8869 112.765 40.5295V40.7102C112.765 40.7902 112.735 40.8544 112.676 40.9029C112.617 40.9514 112.542 40.9757 112.451 40.9757H107.592V41.0957C107.61 41.4571 107.706 41.8014 107.879 42.1264C108.052 42.4513 108.298 42.7168 108.616 42.9218C108.935 43.1267 109.312 43.2297 109.749 43.2297C110.14 43.2297 110.466 43.1776 110.725 43.0733C110.985 42.969 111.192 42.8551 111.346 42.7302C111.501 42.6053 111.6 42.5107 111.646 42.4465C111.729 42.3422 111.792 42.2791 111.837 42.2597C111.882 42.2403 111.955 42.2294 112.055 42.2294H112.274C112.356 42.2294 112.426 42.2512 112.485 42.2961C112.544 42.3398 112.569 42.398 112.561 42.4707C112.551 42.5835 112.481 42.7217 112.349 42.8866C112.217 43.0515 112.031 43.214 111.789 43.3752C111.547 43.5365 111.255 43.6687 110.909 43.7729C110.563 43.8772 110.176 43.9293 109.749 43.9293V43.9281ZM107.592 40.3003H111.933V40.2518C111.933 39.8505 111.847 39.488 111.674 39.1666C111.501 38.8453 111.251 38.5907 110.923 38.4016C110.595 38.2124 110.203 38.1178 109.749 38.1178C109.294 38.1178 108.904 38.2124 108.582 38.4016C108.259 38.5907 108.013 38.8453 107.844 39.1666C107.676 39.488 107.592 39.8493 107.592 40.2518V40.3003Z" fill="#3F3F3F"/>
<path d="M117.257 43.9281C116.62 43.9281 116.079 43.8178 115.633 43.5971C115.186 43.3764 114.847 43.0563 114.615 42.6392C114.383 42.2209 114.258 41.7274 114.24 41.1564C114.231 41.0363 114.227 40.8751 114.227 40.6738C114.227 40.4725 114.231 40.3125 114.24 40.1912C114.258 39.6128 114.383 39.1169 114.615 38.7023C114.847 38.2888 115.186 37.9711 115.633 37.7504C116.079 37.5298 116.62 37.4194 117.257 37.4194C117.739 37.4194 118.155 37.4776 118.506 37.594C118.856 37.7104 119.146 37.8632 119.373 38.0524C119.6 38.2415 119.773 38.4488 119.892 38.6732C120.01 38.8987 120.074 39.1194 120.082 39.3364C120.091 39.4164 120.065 39.4807 120 39.5292C119.937 39.5777 119.864 39.6019 119.782 39.6019H119.591C119.5 39.6019 119.434 39.5837 119.393 39.5474C119.352 39.511 119.309 39.4443 119.263 39.3485C119.072 38.8902 118.81 38.5713 118.477 38.3906C118.145 38.21 117.737 38.119 117.255 38.119C116.636 38.119 116.124 38.2864 115.72 38.6198C115.315 38.9532 115.1 39.4977 115.072 40.253C115.054 40.5343 115.054 40.8156 115.072 41.0969C115.1 41.8523 115.315 42.3967 115.72 42.7302C116.125 43.0636 116.638 43.2297 117.255 43.2297C117.737 43.2297 118.145 43.1388 118.477 42.9581C118.81 42.7775 119.07 42.4574 119.263 42.0003C119.308 41.9033 119.352 41.8378 119.393 41.8014C119.434 41.765 119.5 41.7468 119.591 41.7468H119.782C119.864 41.7468 119.937 41.7711 120 41.8196C120.063 41.8681 120.091 41.9324 120.082 42.0124C120.073 42.1894 120.032 42.3664 119.959 42.5435C119.886 42.7205 119.775 42.8927 119.624 43.0612C119.473 43.2297 119.289 43.3789 119.07 43.5074C118.852 43.6359 118.59 43.739 118.285 43.8154C117.98 43.8918 117.637 43.9293 117.254 43.9293L117.257 43.9281Z" fill="#3F3F3F"/>
<path d="M124.276 43.8081C123.802 43.8081 123.43 43.7195 123.157 43.5425C122.884 43.3655 122.693 43.1242 122.583 42.8199C122.474 42.5143 122.419 42.1736 122.419 41.7953V38.239H121.355C121.265 38.239 121.192 38.2148 121.137 38.1663C121.082 38.1178 121.055 38.0535 121.055 37.9735V37.805C121.055 37.725 121.082 37.6607 121.137 37.6122C121.192 37.5637 121.265 37.5394 121.355 37.5394H122.419V35.5146C122.419 35.4345 122.447 35.3703 122.502 35.3218C122.557 35.2733 122.63 35.249 122.72 35.249H122.952C123.043 35.249 123.116 35.2733 123.17 35.3218C123.225 35.3703 123.253 35.4345 123.253 35.5146V37.5394H124.946C125.036 37.5394 125.109 37.5637 125.164 37.6122C125.219 37.6607 125.246 37.725 125.246 37.805V37.9735C125.246 38.0535 125.219 38.1178 125.164 38.1663C125.109 38.2148 125.036 38.239 124.946 38.239H123.253V41.7468C123.253 42.1724 123.332 42.5058 123.492 42.7471C123.651 42.9884 123.935 43.1084 124.344 43.1084H125.082C125.172 43.1084 125.245 43.1327 125.3 43.1812C125.355 43.2297 125.382 43.294 125.382 43.374V43.5425C125.382 43.6225 125.355 43.6868 125.3 43.7353C125.245 43.7838 125.172 43.8081 125.082 43.8081H124.276Z" fill="#3F3F3F"/>
<path d="M129.448 43.928C128.829 43.928 128.317 43.8092 127.913 43.5727C127.508 43.3363 127.208 43.0125 127.013 42.6027C126.816 42.1929 126.719 41.7346 126.719 41.229V37.8061C126.719 37.726 126.746 37.6618 126.801 37.6133C126.856 37.5648 126.929 37.5405 127.019 37.5405H127.251C127.342 37.5405 127.415 37.5648 127.47 37.6133C127.525 37.6618 127.552 37.726 127.552 37.8061V41.1695C127.552 42.5433 128.23 43.2308 129.586 43.2308C130.232 43.2308 130.75 43.0477 131.141 42.6827C131.532 42.3178 131.729 41.8134 131.729 41.1695V37.8061C131.729 37.726 131.756 37.6618 131.811 37.6133C131.866 37.5648 131.939 37.5405 132.03 37.5405H132.262C132.352 37.5405 132.425 37.5648 132.48 37.6133C132.535 37.6618 132.562 37.726 132.562 37.8061V43.5436C132.562 43.6236 132.535 43.6879 132.48 43.7364C132.425 43.7849 132.352 43.8092 132.262 43.8092H132.03C131.939 43.8092 131.866 43.7849 131.811 43.7364C131.756 43.6879 131.729 43.6236 131.729 43.5436V42.9774C131.483 43.2587 131.189 43.4878 130.849 43.6649C130.507 43.8419 130.041 43.9304 129.45 43.9304L129.448 43.928Z" fill="#3F3F3F"/>
<path d="M135.07 43.8077C134.98 43.8077 134.907 43.7834 134.852 43.7349C134.797 43.6864 134.77 43.6222 134.77 43.5421V37.8167C134.77 37.7367 134.797 37.67 134.852 37.6179C134.907 37.5657 134.98 37.5391 135.07 37.5391H135.289C135.379 37.5391 135.455 37.5657 135.514 37.6179C135.573 37.67 135.603 37.7367 135.603 37.8167V38.3708C135.766 38.0895 136.004 37.881 136.313 37.744C136.622 37.607 137.005 37.5391 137.459 37.5391H137.964C138.055 37.5391 138.128 37.5633 138.183 37.6118C138.238 37.6603 138.265 37.7246 138.265 37.8046V37.9731C138.265 38.0532 138.238 38.1174 138.183 38.1659C138.128 38.2144 138.055 38.2387 137.964 38.2387H137.377C136.83 38.2387 136.399 38.3793 136.081 38.6606C135.762 38.9419 135.603 39.3239 135.603 39.8052V43.5421C135.603 43.6222 135.573 43.6864 135.514 43.7349C135.455 43.7834 135.379 43.8077 135.289 43.8077H135.07Z" fill="#3F3F3F"/>
<path d="M142.155 43.9281C141.272 43.9281 140.572 43.6735 140.053 43.163C139.534 42.6526 139.239 41.9833 139.166 41.1564C139.156 41.0363 139.152 40.8751 139.152 40.6738C139.152 40.4725 139.156 40.3125 139.166 40.1912C139.211 39.6444 139.357 39.163 139.603 38.7447C139.848 38.3264 140.188 38.0014 140.62 37.7686C141.053 37.5358 141.565 37.4194 142.155 37.4194C142.792 37.4194 143.333 37.5443 143.779 37.7929C144.226 38.0427 144.569 38.3991 144.81 38.8659C145.051 39.3315 145.172 39.8869 145.172 40.5295V40.7102C145.172 40.7902 145.141 40.8544 145.082 40.9029C145.023 40.9514 144.948 40.9757 144.857 40.9757H139.998V41.0957C140.016 41.4571 140.112 41.8014 140.285 42.1264C140.458 42.4513 140.704 42.7168 141.022 42.9218C141.341 43.1267 141.718 43.2297 142.155 43.2297C142.546 43.2297 142.872 43.1776 143.131 43.0733C143.391 42.969 143.598 42.8551 143.752 42.7302C143.907 42.6053 144.006 42.5107 144.053 42.4465C144.135 42.3422 144.198 42.2791 144.243 42.2597C144.289 42.2403 144.361 42.2294 144.462 42.2294H144.68C144.762 42.2294 144.832 42.2512 144.891 42.2961C144.95 42.3398 144.975 42.398 144.967 42.4707C144.957 42.5835 144.887 42.7217 144.756 42.8866C144.624 43.0515 144.437 43.214 144.195 43.3752C143.954 43.5365 143.661 43.6687 143.315 43.7729C142.969 43.8772 142.582 43.9293 142.155 43.9293V43.9281ZM139.998 40.3003H144.34V40.2518C144.34 39.8505 144.253 39.488 144.08 39.1666C143.907 38.8453 143.657 38.5907 143.329 38.4016C143.001 38.2124 142.61 38.1178 142.155 38.1178C141.701 38.1178 141.311 38.2124 140.988 38.4016C140.665 38.5907 140.42 38.8453 140.251 39.1666C140.082 39.488 139.998 39.8493 139.998 40.2518V40.3003Z" fill="#3F3F3F"/>
<path d="M146.862 44.7121C146.789 44.7121 146.737 44.6879 146.705 44.6394C146.674 44.5909 146.662 44.5315 146.671 44.4587L146.931 43.0122C146.948 42.9164 146.983 42.8376 147.034 42.777C147.083 42.7163 147.163 42.686 147.273 42.686H147.886C147.949 42.686 148 42.7066 148.036 42.7467C148.072 42.7867 148.091 42.8315 148.091 42.8788C148.091 42.9516 148.073 43.0231 148.036 43.0959L147.448 44.4575C147.411 44.5375 147.369 44.6006 147.319 44.6442C147.268 44.6879 147.194 44.7109 147.094 44.7109H146.862V44.7121Z" fill="#3F3F3F"/>
<path d="M156.772 43.9279C156.034 43.9279 155.408 43.8236 154.895 43.615C154.38 43.4065 153.987 43.1373 153.714 42.8075C153.441 42.4777 153.295 42.1285 153.277 41.7587C153.277 41.6944 153.305 41.6387 153.36 41.5902C153.415 41.5417 153.483 41.5174 153.564 41.5174H153.838C153.928 41.5174 154 41.5417 154.049 41.5902C154.098 41.6387 154.129 41.6944 154.138 41.7587C154.174 41.9842 154.288 42.2073 154.48 42.428C154.671 42.6487 154.954 42.8342 155.326 42.9821C155.699 43.1312 156.181 43.2052 156.773 43.2052C157.665 43.2052 158.315 43.0621 158.725 42.7772C159.135 42.4923 159.339 42.1079 159.339 41.6265C159.339 41.3052 159.232 41.0457 159.018 40.8493C158.804 40.6529 158.478 40.4759 158.042 40.3195C157.605 40.163 157.045 39.9884 156.362 39.7957C155.716 39.6114 155.184 39.4198 154.766 39.2234C154.347 39.0269 154.039 38.7881 153.844 38.5056C153.648 38.2243 153.551 37.8629 153.551 37.4204C153.551 37.0105 153.673 36.6432 153.919 36.317C154.164 35.992 154.521 35.7326 154.989 35.5398C155.458 35.347 156.029 35.25 156.703 35.25C157.24 35.25 157.708 35.3143 158.109 35.4428C158.51 35.5713 158.841 35.7423 159.106 35.9545C159.369 36.1679 159.57 36.397 159.706 36.6419C159.842 36.8869 159.914 37.1257 159.924 37.3597C159.924 37.4155 159.901 37.4701 159.855 37.5222C159.81 37.5744 159.737 37.601 159.637 37.601H159.364C159.319 37.601 159.261 37.5853 159.194 37.5525C159.125 37.521 159.082 37.4567 159.065 37.3597C159.01 36.9584 158.771 36.6262 158.348 36.3655C157.925 36.1048 157.376 35.9739 156.703 35.9739C156.03 35.9739 155.478 36.0903 155.051 36.3231C154.623 36.5559 154.41 36.922 154.41 37.4204C154.41 37.7417 154.506 38.0048 154.697 38.2097C154.888 38.4146 155.189 38.5953 155.598 38.7517C156.007 38.9081 156.535 39.0791 157.181 39.2634C157.863 39.4562 158.427 39.6489 158.874 39.8417C159.32 40.0345 159.652 40.2697 159.87 40.5474C160.089 40.8251 160.199 41.184 160.199 41.6265C160.199 42.1164 160.06 42.5323 159.783 42.8742C159.505 43.2161 159.111 43.4768 158.602 43.6575C158.092 43.8381 157.483 43.9291 156.773 43.9291L156.772 43.9279Z" fill="#3F3F3F"/>
<path d="M162.133 36.2505C162.042 36.2505 161.969 36.2263 161.914 36.1778C161.859 36.1293 161.832 36.065 161.832 35.985V35.5267C161.832 35.4467 161.859 35.38 161.914 35.3278C161.969 35.2757 162.042 35.249 162.133 35.249H162.652C162.742 35.249 162.818 35.2757 162.877 35.3278C162.936 35.38 162.966 35.4467 162.966 35.5267V35.985C162.966 36.065 162.936 36.1293 162.877 36.1778C162.818 36.2263 162.742 36.2505 162.652 36.2505H162.133ZM162.282 43.8081C162.192 43.8081 162.119 43.7838 162.064 43.7353C162.009 43.6868 161.982 43.6225 161.982 43.5425V37.805C161.982 37.725 162.009 37.6607 162.064 37.6122C162.119 37.5637 162.192 37.5394 162.282 37.5394H162.514C162.605 37.5394 162.678 37.5637 162.733 37.6122C162.788 37.6607 162.815 37.725 162.815 37.805V43.5425C162.815 43.6225 162.788 43.6868 162.733 43.7353C162.678 43.7838 162.605 43.8081 162.514 43.8081H162.282Z" fill="#3F3F3F"/>
<path d="M165.332 43.8074C165.241 43.8074 165.169 43.7831 165.114 43.7346C165.059 43.6861 165.031 43.6218 165.031 43.5418V37.8043C165.031 37.7242 165.059 37.66 165.114 37.6115C165.169 37.563 165.241 37.5387 165.332 37.5387H165.564C165.655 37.5387 165.727 37.563 165.782 37.6115C165.837 37.66 165.865 37.7242 165.865 37.8043V38.3705C166.11 38.0892 166.408 37.86 166.758 37.683C167.109 37.506 167.575 37.4175 168.158 37.4175C168.777 37.4175 169.293 37.5363 169.706 37.7727C170.12 38.0104 170.43 38.3317 170.634 38.7367C170.839 39.1429 170.942 39.6024 170.942 40.1165V43.5394C170.942 43.6194 170.915 43.6837 170.86 43.7322C170.805 43.7807 170.732 43.8049 170.641 43.8049H170.409C170.319 43.8049 170.246 43.7807 170.191 43.7322C170.136 43.6837 170.109 43.6194 170.109 43.5394V40.1759C170.109 39.5333 169.931 39.0289 169.576 38.6627C169.222 38.2965 168.703 38.1147 168.02 38.1147C167.374 38.1147 166.853 38.2978 166.458 38.6627C166.062 39.0289 165.863 39.5321 165.863 40.1759V43.5394C165.863 43.6194 165.836 43.6837 165.781 43.7322C165.726 43.7807 165.653 43.8049 165.563 43.8049H165.331L165.332 43.8074Z" fill="#3F3F3F"/>
<path d="M175.78 43.9281C175.143 43.9281 174.602 43.8178 174.156 43.5971C173.71 43.3764 173.371 43.0563 173.139 42.6392C172.907 42.2209 172.782 41.7274 172.764 41.1564C172.754 41.0363 172.75 40.8751 172.75 40.6738C172.75 40.4725 172.754 40.3125 172.764 40.1912C172.782 39.6128 172.907 39.1169 173.139 38.7023C173.371 38.2888 173.71 37.9711 174.156 37.7504C174.602 37.5298 175.143 37.4194 175.78 37.4194C176.262 37.4194 176.678 37.4776 177.03 37.594C177.38 37.7104 177.669 37.8632 177.896 38.0524C178.124 38.2415 178.297 38.4488 178.415 38.6732C178.533 38.8987 178.598 39.1194 178.606 39.3364C178.614 39.4164 178.588 39.4807 178.523 39.5292C178.46 39.5777 178.388 39.6019 178.305 39.6019H178.114C178.024 39.6019 177.958 39.5837 177.917 39.5474C177.875 39.511 177.833 39.4443 177.786 39.3485C177.595 38.8902 177.333 38.5713 177.001 38.3906C176.669 38.21 176.261 38.119 175.779 38.119C175.16 38.119 174.647 38.2864 174.244 38.6198C173.839 38.9532 173.623 39.4977 173.596 40.253C173.578 40.5343 173.578 40.8156 173.596 41.0969C173.623 41.8523 173.839 42.3967 174.244 42.7302C174.649 43.0636 175.161 43.2297 175.779 43.2297C176.261 43.2297 176.669 43.1388 177.001 42.9581C177.333 42.7775 177.594 42.4574 177.786 42.0003C177.831 41.9033 177.875 41.8378 177.917 41.8014C177.958 41.765 178.024 41.7468 178.114 41.7468H178.305C178.388 41.7468 178.46 41.7711 178.523 41.8196C178.587 41.8681 178.614 41.9324 178.606 42.0124C178.596 42.1894 178.555 42.3664 178.482 42.5435C178.409 42.7205 178.298 42.8927 178.147 43.0612C177.996 43.2297 177.812 43.3789 177.594 43.5074C177.376 43.6359 177.113 43.739 176.809 43.8154C176.504 43.8918 176.161 43.9293 175.777 43.9293L175.78 43.9281Z" fill="#3F3F3F"/>
<path d="M183.038 43.9281C182.155 43.9281 181.455 43.6735 180.936 43.163C180.417 42.6526 180.122 41.9833 180.049 41.1564C180.039 41.0363 180.035 40.8751 180.035 40.6738C180.035 40.4725 180.039 40.3125 180.049 40.1912C180.094 39.6444 180.24 39.163 180.485 38.7447C180.731 38.3264 181.07 38.0014 181.503 37.7686C181.935 37.5358 182.448 37.4194 183.038 37.4194C183.675 37.4194 184.216 37.5443 184.662 37.7929C185.108 38.0427 185.452 38.3991 185.693 38.8659C185.934 39.3315 186.054 39.8869 186.054 40.5295V40.7102C186.054 40.7902 186.024 40.8544 185.965 40.9029C185.906 40.9514 185.831 40.9757 185.74 40.9757H180.881V41.0957C180.899 41.4571 180.995 41.8014 181.168 42.1264C181.341 42.4513 181.587 42.7168 181.905 42.9218C182.224 43.1267 182.601 43.2297 183.038 43.2297C183.429 43.2297 183.755 43.1776 184.014 43.0733C184.274 42.969 184.481 42.8551 184.635 42.7302C184.79 42.6053 184.889 42.5107 184.935 42.4465C185.018 42.3422 185.081 42.2791 185.126 42.2597C185.172 42.2403 185.244 42.2294 185.345 42.2294H185.563C185.645 42.2294 185.715 42.2512 185.774 42.2961C185.833 42.3398 185.858 42.398 185.85 42.4707C185.84 42.5835 185.77 42.7217 185.638 42.8866C185.507 43.0515 185.32 43.214 185.078 43.3752C184.837 43.5365 184.544 43.6687 184.198 43.7729C183.852 43.8772 183.465 43.9293 183.038 43.9293V43.9281ZM180.881 40.3003H185.222V40.2518C185.222 39.8505 185.136 39.488 184.963 39.1666C184.79 38.8453 184.54 38.5907 184.212 38.4016C183.884 38.2124 183.492 38.1178 183.038 38.1178C182.583 38.1178 182.194 38.2124 181.871 38.4016C181.548 38.5907 181.302 38.8453 181.134 39.1666C180.965 39.488 180.881 39.8493 180.881 40.2518V40.3003Z" fill="#3F3F3F"/>
<path d="M194.036 43.8077C193.945 43.8077 193.873 43.7834 193.818 43.7349C193.763 43.6864 193.735 43.6222 193.735 43.5421V36.3581L191.291 38.0216C191.219 38.0701 191.143 38.0895 191.066 38.0822C190.989 38.075 190.923 38.0386 190.868 37.9743L190.719 37.8058C190.664 37.7415 190.642 37.6748 190.65 37.6069C190.66 37.539 190.7 37.4808 190.774 37.4323L193.682 35.456C193.745 35.416 193.804 35.3917 193.859 35.3832C193.914 35.3759 193.973 35.3711 194.036 35.3711H194.295C194.386 35.3711 194.459 35.3953 194.514 35.4438C194.569 35.4923 194.596 35.5566 194.596 35.6366V43.5446C194.596 43.6246 194.569 43.6888 194.514 43.7373C194.459 43.7858 194.386 43.8101 194.295 43.8101H194.036V43.8077Z" fill="#3F3F3F"/>
<path d="M198.447 43.8078C198.364 43.8078 198.298 43.7823 198.249 43.729C198.2 43.6769 198.173 43.615 198.173 43.5423C198.173 43.5023 198.183 43.4695 198.201 43.4465C198.219 43.4222 198.232 43.4028 198.242 43.3859L200.399 40.7099C200.126 40.7741 199.831 40.8057 199.512 40.8057C198.966 40.8057 198.491 40.7256 198.086 40.5644C197.681 40.4031 197.344 40.1885 197.075 39.9193C196.806 39.6501 196.607 39.3531 196.475 39.0269C196.343 38.702 196.277 38.3697 196.277 38.0327C196.277 37.6956 196.343 37.3622 196.475 37.0324C196.607 36.7026 196.807 36.4031 197.075 36.1339C197.343 35.8647 197.681 35.6501 198.086 35.4888C198.491 35.3276 198.966 35.2476 199.512 35.2476C200.059 35.2476 200.534 35.3276 200.939 35.4888C201.344 35.6501 201.683 35.8647 201.956 36.1339C202.229 36.4031 202.431 36.7026 202.563 37.0324C202.695 37.3622 202.761 37.6956 202.761 38.0327C202.761 38.3455 202.715 38.6316 202.625 38.8887C202.534 39.1457 202.427 39.3713 202.303 39.5641C202.18 39.7568 202.065 39.9217 201.955 40.0588L199.143 43.5665C199.106 43.6065 199.059 43.6575 199 43.7169C198.941 43.7775 198.848 43.8078 198.72 43.8078H198.447ZM199.511 40.083C199.938 40.083 200.335 39.9981 200.698 39.8296C201.062 39.6611 201.353 39.4234 201.572 39.1179C201.79 38.8123 201.9 38.451 201.9 38.0327C201.9 37.6144 201.79 37.2409 201.572 36.9354C201.353 36.6298 201.062 36.3934 200.698 36.2236C200.335 36.0551 199.938 35.9702 199.511 35.9702C199.084 35.9702 198.69 36.0551 198.33 36.2236C197.97 36.3922 197.682 36.6298 197.464 36.9354C197.245 37.2409 197.135 37.6071 197.135 38.0327C197.135 38.4583 197.245 38.8123 197.464 39.1179C197.682 39.4234 197.97 39.6598 198.33 39.8296C198.69 39.9981 199.082 40.083 199.511 40.083Z" fill="#3F3F3F"/>
<path d="M207.73 43.9281C207.266 43.9281 206.827 43.8735 206.413 43.7656C205.999 43.6565 205.638 43.4964 205.329 43.283C205.02 43.0696 204.776 42.809 204.598 42.4998C204.421 42.1906 204.332 41.8353 204.332 41.4328C204.332 40.9187 204.473 40.4822 204.755 40.1245C205.036 39.7668 205.41 39.4916 205.874 39.2988C205.51 39.1145 205.219 38.8695 205.001 38.564C204.782 38.2584 204.673 37.8935 204.673 37.4667C204.673 36.9768 204.808 36.5682 205.082 36.2433C205.355 35.9183 205.723 35.671 206.187 35.5024C206.651 35.3339 207.165 35.249 207.729 35.249C208.293 35.249 208.807 35.3339 209.271 35.5024C209.735 35.671 210.103 35.9183 210.376 36.2433C210.649 36.5682 210.785 36.9768 210.785 37.4667C210.785 37.8923 210.677 38.2584 210.457 38.564C210.239 38.8695 209.948 39.1145 209.584 39.2988C210.048 39.4916 210.421 39.7668 210.703 40.1245C210.984 40.4822 211.126 40.9187 211.126 41.4328C211.126 41.9469 210.973 42.4258 210.668 42.7944C210.364 43.1642 209.954 43.4455 209.44 43.6383C208.925 43.8311 208.355 43.9281 207.726 43.9281H207.73ZM207.73 43.2054C208.204 43.2054 208.631 43.1327 209.014 42.9884C209.396 42.8441 209.7 42.6392 209.928 42.3737C210.156 42.1081 210.27 41.7953 210.27 41.434C210.27 41.0727 210.156 40.7489 209.928 40.4882C209.7 40.2275 209.396 40.0263 209.014 39.8856C208.632 39.745 208.204 39.6746 207.73 39.6746C207.257 39.6746 206.84 39.745 206.455 39.8856C206.067 40.0263 205.761 40.2275 205.533 40.4882C205.305 40.7489 205.192 41.0654 205.192 41.434C205.192 41.8026 205.305 42.1093 205.533 42.3737C205.761 42.6392 206.067 42.8441 206.455 42.9884C206.842 43.1327 207.267 43.2054 207.73 43.2054ZM207.73 38.9508C208.121 38.9423 208.483 38.878 208.815 38.758C209.147 38.638 209.415 38.4682 209.621 38.2524C209.825 38.0353 209.928 37.7747 209.928 37.4691C209.928 37.1636 209.831 36.8883 209.635 36.6676C209.438 36.447 209.175 36.276 208.842 36.1548C208.51 36.0347 208.139 35.9741 207.73 35.9741C207.321 35.9741 206.961 36.0347 206.625 36.1548C206.289 36.2748 206.022 36.4458 205.826 36.6676C205.63 36.8883 205.532 37.1563 205.532 37.4691C205.532 37.7819 205.63 38.0499 205.826 38.2706C206.021 38.4912 206.287 38.661 206.625 38.7774C206.961 38.8938 207.331 38.952 207.73 38.952V38.9508Z" fill="#3F3F3F"/>
<path d="M214.685 43.8078C214.603 43.8078 214.537 43.7823 214.487 43.729C214.438 43.6769 214.412 43.615 214.412 43.5423C214.412 43.5023 214.421 43.4695 214.439 43.4465C214.457 43.4222 214.471 43.4028 214.48 43.3859L216.637 40.7099C216.364 40.7741 216.069 40.8057 215.75 40.8057C215.204 40.8057 214.729 40.7256 214.324 40.5644C213.919 40.4031 213.582 40.1885 213.313 39.9193C213.044 39.6501 212.845 39.3531 212.713 39.0269C212.582 38.702 212.516 38.3697 212.516 38.0327C212.516 37.6956 212.582 37.3622 212.713 37.0324C212.845 36.7026 213.046 36.4031 213.313 36.1339C213.581 35.8647 213.919 35.6501 214.324 35.4888C214.729 35.3276 215.204 35.2476 215.75 35.2476C216.297 35.2476 216.772 35.3276 217.177 35.4888C217.582 35.6501 217.921 35.8647 218.194 36.1339C218.468 36.4031 218.669 36.7026 218.801 37.0324C218.933 37.3622 218.999 37.6956 218.999 38.0327C218.999 38.3455 218.954 38.6316 218.863 38.8887C218.772 39.1457 218.665 39.3713 218.542 39.5641C218.418 39.7568 218.303 39.9217 218.193 40.0588L215.381 43.5665C215.344 43.6065 215.297 43.6575 215.238 43.7169C215.179 43.7775 215.086 43.8078 214.958 43.8078H214.685ZM215.75 40.083C216.177 40.083 216.574 39.9981 216.938 39.8296C217.302 39.6611 217.593 39.4234 217.811 39.1179C218.03 38.8123 218.139 38.451 218.139 38.0327C218.139 37.6144 218.03 37.2409 217.811 36.9354C217.593 36.6298 217.302 36.3934 216.938 36.2236C216.574 36.0551 216.177 35.9702 215.75 35.9702C215.323 35.9702 214.929 36.0551 214.57 36.2236C214.21 36.3922 213.922 36.6298 213.703 36.9354C213.485 37.2409 213.375 37.6071 213.375 38.0327C213.375 38.4583 213.485 38.8123 213.703 39.1179C213.922 39.4234 214.21 39.6598 214.57 39.8296C214.929 39.9981 215.322 40.083 215.75 40.083Z" fill="#3F3F3F"/>
</g>
<defs>
<clipPath id="clip0_4191_712">
<rect width="219" height="46" fill="white"/>
</clipPath>
</defs>
</svg>
