<svg width="120" height="30" viewBox="0 0 120 30" fill="none" xmlns="http://www.w3.org/2000/svg">
<g clip-path="url(#clip0_3640_1544)">
<path d="M22.7254 0C23.18 0.242578 23.6597 0.54375 23.6898 1.11094L23.6922 28.541C23.7126 29.1445 23.1427 29.7141 22.5475 29.7691L1.25651 29.7715C0.616834 29.7996 0.266934 29.3145 0 28.8281V18.3984C0.161122 18.1207 0.69018 17.4609 1.02204 17.4609H17.495C17.9242 17.4609 18.6373 16.7648 18.6373 16.3477V0.996094C18.6373 0.672656 19.3142 0.157031 19.5992 0H22.7254Z" fill="black"/>
<path d="M40.7639 0C41.3904 0.424219 41.6477 0.834375 41.7247 1.5832C41.9567 3.84492 41.9134 8.31094 41.7307 10.609C41.6585 11.5066 41.5046 12.2168 40.4694 12.3094C37.3022 12.593 33.6962 12.0844 30.481 12.307C29.6886 12.2309 29.4 11.5406 29.3363 10.8445C29.0609 7.82344 29.5515 4.41094 29.3411 1.34766C29.4193 0.680859 29.7343 0.321094 30.303 0H40.7639Z" fill="black"/>
<path d="M11.3038 0C11.7595 0.242578 12.2381 0.54375 12.2681 1.11094C11.9723 4.27852 12.6529 8.10703 12.2681 11.1949C12.178 11.9203 11.7198 12.2484 11.008 12.3117C7.87816 12.5895 4.31663 12.0891 1.13988 12.3082C0.557916 12.2789 0.2501 11.8113 0 11.3684V0.9375C0.272946 0.485156 0.498998 0.264844 0.963126 0H11.3038Z" fill="black"/>
<path d="M119.999 13.7112V14.8831C119.419 16.8354 117.614 18.0882 115.55 17.1682C114.528 16.7124 113.416 15.3624 113.863 14.2362L115.063 13.9491C115.13 17.5643 119.981 15.7761 118.249 13.2483C117.679 12.4163 116.037 11.9171 115.304 11.1964C113.165 9.09285 115.487 5.61942 118.239 6.92957C119.42 7.49207 120.322 9.46082 118.386 9.60613C118.086 9.51707 118.297 8.04988 117.057 8.08152C116.312 8.10027 115.829 8.73309 115.912 9.42332C116.036 10.4546 118.275 11.2175 119.041 12.0073C119.509 12.4889 119.741 13.1147 119.998 13.7112H119.999Z" fill="black"/>
<path d="M86.4243 29.9917C82.0066 28.6523 84.7854 21.2167 88.8579 24.3749V20.6835C88.8411 20.5265 87.4319 20.2159 88.092 20.0542C88.5104 19.9523 89.7249 19.8163 90.0603 20.0976V28.6523C90.0603 28.6944 90.2888 29.012 90.3573 29.0659C90.4776 29.1608 90.6495 29.1878 90.7902 29.2288C90.9754 29.2827 90.9645 29.5417 90.7758 29.5815L89.411 29.8663C89.3124 29.8874 89.2126 29.8276 89.1898 29.7316C89.1261 29.462 89.1633 28.9605 88.9205 29.0636C88.5201 29.5757 87.9068 29.7433 87.3309 29.9858C87.308 29.9952 87.2828 30.0011 87.2575 30.0011H86.4832C86.4639 30.0011 86.4435 29.9987 86.4243 29.9929V29.9917ZM86.779 24.048C85.0643 24.4323 84.9814 29.1409 86.7814 29.503C87.6892 29.6858 88.5874 29.2851 88.8062 28.3675C88.9265 27.8612 88.9325 24.9386 88.7148 24.573C88.4431 24.1159 87.284 23.9355 86.779 24.0491V24.048Z" fill="black"/>
<path d="M62.8821 29.9999C62.555 29.9999 62.2316 29.8897 61.9995 29.6659C61.6893 29.3682 61.6051 28.9745 61.6929 28.4249C61.8853 27.2202 63.9835 26.5593 64.9815 26.1221C65.3783 25.8456 65.2821 24.1218 64.6063 23.9296C64.3683 23.8616 63.4641 23.8628 63.2476 23.9635C62.8653 24.1417 62.8544 25.01 62.6524 25.1413L61.9779 25.085C61.4921 23.2335 64.9081 23.278 65.8364 24.0198C66.6769 24.6925 66.0252 27.6889 66.3065 28.835C66.351 29.0167 66.4977 29.3612 66.6913 29.3975L67.3358 29.1784C67.3875 29.4737 67.2047 29.6319 67.0039 29.7819C66.8164 29.9225 66.5867 29.9975 66.3498 29.9975C66.143 29.9975 65.941 29.9401 65.7667 29.8311C65.4721 29.6471 65.1979 29.4866 65.1703 29.0612L63.9246 29.8089C63.7178 29.9331 63.4809 29.9987 63.238 29.9987H62.8821V29.9999ZM65.1715 26.3671C63.8873 26.7643 62.151 27.8343 63.1791 29.305C63.5687 29.7749 65.1715 28.9932 65.1715 28.6522V26.3671Z" fill="black"/>
<path d="M106.589 30.0001C105.965 30.0001 105.349 29.8103 104.866 29.4271C103.224 28.124 103.322 25.2998 105.152 24.0248C106.303 23.2232 108.192 23.4693 108.866 24.7396C108.96 24.9154 109.407 26.0169 108.998 26.0169H105.091C104.605 27.6107 105.906 30.2673 107.895 29.2771C108.109 29.1705 108.277 29.0076 108.454 28.8646C108.63 28.7216 108.867 28.9595 108.711 29.1283C108.693 29.1482 108.674 29.1681 108.653 29.188C108.131 29.7166 107.403 30.0013 106.651 30.0013H106.59L106.589 30.0001ZM105.271 25.6642H107.676C108.353 25.6642 107.753 24.1736 107.253 23.9685C106.654 23.7212 105.793 24.0248 105.45 24.5509C105.323 24.7466 104.973 25.5927 105.271 25.6654V25.6642Z" fill="black"/>
<path d="M115.534 29.8443C115.235 29.72 114.897 29.7529 114.575 29.8255C114.458 29.8525 114.348 29.7646 114.348 29.6486V28.0677C114.348 28.0103 114.557 27.8122 114.651 28.0068C114.692 29.0989 116.284 30.3751 117.116 29.2419C118.157 27.8239 115.504 27.2075 114.83 26.3099C114.045 25.2646 114.533 23.5958 115.976 23.5513C116.567 23.5337 117.132 23.9779 117.716 23.556V25.3138C117.342 25.1614 117.345 24.7372 117.116 24.4337C116.418 23.5091 115.008 23.9029 115.241 24.8439C115.552 26.1048 118.375 26.0427 118.186 28.2868C118.127 28.9876 117.849 29.4095 117.362 29.713C117.051 29.9064 116.685 30.0013 116.316 30.0013C116.048 30.0013 115.782 29.9474 115.536 29.8454L115.534 29.8443Z" fill="black"/>
<path d="M41.3244 17.849C41.5577 18.1045 41.696 18.8064 41.7272 19.1568C41.9353 21.5193 41.8944 25.5646 41.7284 27.9553C41.6587 28.9596 41.5048 29.6639 40.3457 29.7717C37.2314 30.0635 33.6435 29.5396 30.4775 29.7681C29.6779 29.6896 29.3954 28.9935 29.3328 28.3056C29.1188 25.9443 29.1176 21.2814 29.3328 18.9213C29.4146 18.0178 29.7585 17.5455 30.7144 17.4553C33.7878 17.1646 37.3373 17.6873 40.4635 17.4576C40.7088 17.4717 41.1753 17.6849 41.3244 17.8478V17.849Z" fill="black"/>
<path d="M110.263 17.2265V9.31638C110.263 9.27419 110.054 8.70935 110.007 8.62849C109.168 7.1988 106.776 7.8738 106.776 9.43356V17.2265C106.449 17.1679 105.47 17.3918 105.35 17.0343L105.339 9.31052C105.257 7.93239 103.609 7.37106 102.564 8.25817C102.421 8.38005 101.966 8.95896 101.966 9.082V17.2265L100.721 17.2101L100.523 16.9336L100.576 7.02419C100.724 6.81677 101.543 6.95505 101.88 6.88825C102.127 6.83903 102.418 6.60583 102.711 6.52614C103.99 6.17575 105.22 6.54841 106.116 7.4988C108.173 5.2863 111.381 6.53083 111.693 9.4488C111.947 11.8418 111.547 14.6027 111.69 17.0355C111.57 17.3929 110.591 17.1691 110.264 17.2277L110.263 17.2265Z" fill="black"/>
<path d="M98.117 17.2266H96.6729V15.8203C93.1439 19.2328 87.2485 17.0883 86.9286 12.2508C86.5775 6.94454 92.6509 4.05001 96.614 7.73321L96.7859 6.96446C96.9543 6.85079 97.9595 6.83438 98.1158 7.08868V17.2254L98.117 17.2266ZM91.5928 7.64532C87.7643 8.27344 87.1523 14.4539 91.1467 15.7594C94.933 16.9957 97.9968 13.1777 96.299 9.8004C95.426 8.06368 93.507 7.33126 91.5928 7.64532Z" fill="black"/>
<path d="M74.1888 17.2268H72.7447V15.8206C69.1471 19.2612 63.307 17.0698 63.0004 12.1339C62.6781 6.94713 68.8609 4.04557 72.6858 7.73346L72.8577 6.96471C73.026 6.85104 74.0313 6.83463 74.1876 7.08893V17.2256L74.1888 17.2268ZM68.3956 7.52721C63.9755 7.69948 62.9295 14.3581 67.2172 15.7585C73.709 17.8784 74.9703 7.27057 68.3956 7.52721Z" fill="black"/>
<path d="M48.4585 11.7187V17.0508C48.1098 17.3941 47.4798 17.1656 47.0156 17.2266V0.820312H51.4044C53.9872 0.820312 56.285 3.91289 56.2838 6.26953C56.2826 8.48203 54.0677 11.7187 51.6449 11.7187H48.4585ZM48.4585 2.34375V10.1367L48.6389 10.3125H51.1639C53.5808 10.3125 55.1319 7.49531 54.6822 5.36016C54.4393 4.20586 52.9146 2.34375 51.6449 2.34375H48.4585Z" fill="black"/>
<path d="M83.3284 17.2263V10.1365C83.3284 10.0943 83.1036 9.44389 83.0567 9.34663C82.2763 7.6896 79.94 7.29936 78.633 8.60835C78.5296 8.71147 78.0366 9.37593 78.0366 9.43335V17.2263L76.7909 17.2099L76.5938 16.9333L76.6106 7.106L76.7909 6.93022C77.3909 6.73921 78.0799 7.14702 78.1954 7.12944C78.2627 7.12007 78.8002 6.76499 79.0563 6.6771C82.0166 5.65874 84.5416 7.34741 84.7737 10.3662C84.936 12.4826 84.6426 14.7947 84.7689 16.9333L84.5717 17.2099L83.326 17.2263H83.3284Z" fill="black"/>
<path d="M50.2622 20.6251L49.3532 21.0869C49.263 21.1794 49.0598 21.647 49.0598 21.7384V24.6681L49.2402 24.8439H53.4486C53.4882 24.8439 53.6313 24.6892 53.7492 24.7267V21.6212C53.7492 21.5626 53.5291 21.1419 53.457 21.0857C53.1768 20.8642 52.4999 21.0435 52.5468 20.6251H56.2742C56.3343 20.9755 56.1804 20.8115 55.9929 20.8724C55.4049 21.0646 55.186 21.0248 55.0826 21.749C54.8782 23.1845 54.9275 27.0388 55.0658 28.54C55.1536 29.4915 55.4674 29.222 56.1215 29.5021C56.2899 29.5748 56.3079 29.5185 56.273 29.7646H52.5456C52.5011 29.3568 53.2285 29.4939 53.4774 29.2666C53.4991 29.2478 53.748 28.7966 53.748 28.7685V25.3701C53.6422 25.2025 53.5087 25.2083 53.3331 25.1884C51.9937 25.0349 50.4365 25.4814 49.0586 25.3115V28.7685C49.0586 28.8177 49.2426 29.1822 49.3003 29.2361C49.5816 29.4951 50.3151 29.3216 50.261 29.7646H46.5335C46.4734 29.4306 46.6153 29.5724 46.7981 29.5009C47.3428 29.2876 47.653 29.365 47.7383 28.6537C47.9969 26.488 47.5472 23.8455 47.7287 21.6271C47.6301 21.013 47.0999 20.856 46.5335 20.8583C46.5528 20.3263 46.8474 20.6251 46.9544 20.6251H50.261H50.2622Z" fill="black"/>
<path d="M57.3594 7.08951C57.4472 6.81412 58.4223 6.89029 58.6892 6.96529L58.8612 8.0856C59.6932 7.36255 60.6203 6.64185 61.8083 6.79654L61.8155 8.1313C57.5902 9.20005 59.0704 13.8606 58.7854 17.034C58.6652 17.3915 57.6864 17.1676 57.3594 17.2262V7.08951Z" fill="black"/>
<path d="M74.1925 24.6092C74.9909 23.5709 76.9965 23.0811 77.8635 24.2529C78.6174 25.2736 77.7276 28.8619 78.407 29.3482C78.5296 29.4361 78.752 29.4584 78.9132 29.5322C79.007 29.5756 79.0418 29.6881 78.9937 29.7771C78.9601 29.8404 78.8927 29.8791 78.8194 29.8756L76.1152 29.7619C76.2222 29.4268 76.714 29.4971 76.8943 29.292C77.1552 28.9943 77.1312 26.1596 77.0819 25.5994C76.8619 23.0881 74.4282 23.9061 74.2058 25.7342C74.1312 26.3412 74.0951 28.4354 74.219 28.9768C74.3428 29.5182 74.8226 29.3576 75.152 29.7057C74.9789 29.9705 74.8803 29.8369 74.6723 29.8252C73.8294 29.7807 72.9925 29.7314 72.1484 29.7631C72.2458 29.4186 72.7689 29.5076 72.9288 29.2943C73.2258 28.8994 73.2198 24.7756 72.8723 24.4299C72.6967 24.2564 72.2434 24.3244 72.1496 24.0232L73.8775 23.5615L74.1949 24.608L74.1925 24.6092Z" fill="black"/>
<path d="M97.8621 19.9355C97.9595 20.1324 97.986 20.3434 98.0028 20.5613C98.2048 23.2883 97.8381 26.2484 98.0004 29.0012C98.0076 29.1324 98.0798 29.2156 98.1711 29.3035C98.3647 29.4887 98.9431 29.4781 98.8385 29.7055C98.7255 29.9504 98.5367 29.8414 98.3611 29.8309C97.7275 29.7969 97.0998 29.7816 96.4721 29.7723C96.2858 29.7699 96.2184 29.532 96.3772 29.4359L96.5996 29.3023C96.6537 29.2695 96.6874 29.2121 96.6874 29.15L96.7872 21.1613C96.7643 21.0172 96.7198 20.8508 96.614 20.7453C96.3796 20.5121 95.8733 20.6598 95.9539 20.2754L97.8633 19.9367L97.8621 19.9355Z" fill="black"/>
</g>
<defs>
<clipPath id="clip0_3640_1544">
<rect width="120" height="30" fill="white"/>
</clipPath>
</defs>
</svg>
