<?xml version="1.0" encoding="UTF-8"?>
<svg id="Layer_1" xmlns="http://www.w3.org/2000/svg" version="1.1" viewBox="0 0 591.9 466.9">
  <!-- Generator: Adobe Illustrator 29.2.1, SVG Export Plug-In . SVG Version: 2.1.0 Build 116)  -->
  <defs>
    <style>
      .st0 {
        fill: #fff;
      }

      .st1 {
        opacity: .1;
      }
    </style>
  </defs>
  <rect class="st1" x="4.5" y="4.5" width="582.9" height="457.9" rx="124.5" ry="124.5"/>
  <g>
    <path class="st0" d="M450.5,231.6v15.1c-2.3,23.8-11.8,49-28.5,66.5-3.3,3.5-7.2,7.8-12.2,4.1s1.3-11.2,4.4-15.1c29.1-36.4,32.1-85.2,2.8-122.6s-9.9-9.4-9.7-13.5,1.5-4.4,2.9-5.3c6.4-3.8,11.7,4.1,15.3,8.4,14.1,17,23.3,39.2,24.5,61.4l.6,1Z"/>
    <path class="st0" d="M314.9,88.8c14.1-1.2,27.4,9,30.1,22.9,1.8,83,.3,166.4.8,249.5-1.2,23.1-25.3,36.2-45.1,23.2l-102.3-82.1c-17.2-1.9-37.3,3.4-52.6-6.4s-15.6-16.8-16.4-28.2c-1.4-20.3.4-43.4.9-63.7,8.8-32.9,41.4-27.2,68.1-27.9l102.3-82.1c4.1-2.9,9.2-4.8,14.2-5.2ZM315.5,101.9c-1.7.2-3.7,1-5.3,1.6l-103.4,82.9-.4,103.2c0,3,3.8,5.2,6,7.2,30.8,26.3,64.2,50,95.1,76.2,10.9,7.9,23.8,1.2,25-11.9V117.7c.2-9-8.1-16.9-17.1-15.8ZM193.3,189.6h-29.2c-11,0-20.8,10.4-21.7,21-1.6,18.8,1,40.3.3,59.3.8,8.6,11.7,18.8,20.1,18.8h30.4v-99.1Z"/>
    <path class="st0" d="M383.9,188.4c5.9-1,13.6,10.8,16.3,15.4,12.9,21.9,12.9,48.7,0,70.7-2.5,4.2-10.2,15.6-15.3,15.5s-7-4-6.5-7.7,7.6-10,9.5-13.1c12-18.9,11.5-43.1-1-61.6-1.8-2.7-7.9-8.8-8.4-11.1-.8-3.5,1.6-7.4,5.2-8.1Z"/>
  </g>
  <path class="st0" d="M463,466.9H129C57.9,466.9,0,409,0,337.9v-208.9C0,57.9,57.9,0,129,0h334c71.1,0,129,57.9,129,129v208.9c0,71.1-57.9,129-129,129ZM129,9C62.8,9,9,62.8,9,129v208.9c0,66.2,53.8,120,120,120h334c66.2,0,120-53.8,120-120v-208.9c0-66.2-53.8-120-120-120H129Z"/>
</svg>