<?xml version="1.0" encoding="UTF-8"?>
<svg id="Layer_1" xmlns="http://www.w3.org/2000/svg" version="1.1" viewBox="0 0 591.9 466.9">
  <!-- Generator: Adobe Illustrator 29.2.1, SVG Export Plug-In . SVG Version: 2.1.0 Build 116)  -->
  <defs>
    <style>
      .st0 {
        fill: none;
      }

      .st1 {
        fill: #fff;
      }

      .st2 {
        opacity: .1;
      }
    </style>
  </defs>
  <rect class="st2" x="4.5" y="4.5" width="582.9" height="457.9" rx="124.5" ry="124.5"/>
  <g>
    <rect class="st1" x="307.4" y="58.5" width="13.3" height="364.4" rx="6.6" ry="6.6" transform="translate(-81.4 228.2) rotate(-35.7)"/>
    <g>
      <path class="st0" d="M239.8,186.5l-.4,103.2c0,3,3.8,5.2,6,7.2,30.8,26.3,64.2,50,95.1,76.2,10.9,7.9,23.8,1.2,25-11.9v-53.6s-101.1-140.9-101.1-140.9l-24.7,19.8Z"/>
      <path class="st0" d="M175.5,210.6c-1.6,18.8,1,40.3.3,59.3.8,8.6,11.7,18.8,20.1,18.8h30.4v-99.1h-29.2c-11,0-20.8,10.4-21.7,21Z"/>
      <path class="st0" d="M348.5,101.9c-1.7.2-3.7,1-5.3,1.6l-68.3,54.8,90.7,126.5V117.7c.2-9-8.1-16.9-17.1-15.8Z"/>
      <path class="st1" d="M343.2,103.5c1.6-.6,3.6-1.4,5.3-1.6,8.9-1.1,17.3,6.8,17.1,15.8v167.1s13.1,18.2,13.1,18.2c.1-63.8.7-127.7-.7-191.4-2.6-13.9-16-24.1-30.1-22.9-5,.4-10.1,2.3-14.2,5.2l-66.6,53.4,7.8,10.9,68.3-54.8Z"/>
      <path class="st1" d="M365.6,361.2c-1.2,13.1-14.2,19.8-25,11.9-30.9-26.2-64.2-49.9-95.1-76.2-2.3-1.9-6.1-4.1-6-7.2l.4-103.2,24.7-19.8-7.8-10.9-25.4,20.4c-26.7.7-59.3-4.9-68.1,27.9-.6,20.4-2.4,43.4-.9,63.7.8,11.3,6.8,22.1,16.4,28.2,15.3,9.7,35.4,4.5,52.6,6.4l102.3,82.1c19.8,13,43.9,0,45.1-23.2,0-11.8,0-23.6-.1-35.4l-13.1-18.2v53.6ZM226.3,288.7h-30.4c-8.4,0-19.3-10.2-20.1-18.8.7-19.1-1.9-40.5-.3-59.3.9-10.6,10.7-21,21.7-21h29.2v99.1Z"/>
    </g>
  </g>
  <path class="st1" d="M463,466.9H129C57.9,466.9,0,409,0,337.9v-208.9C0,57.9,57.9,0,129,0h334c71.1,0,129,57.9,129,129v208.9c0,71.1-57.9,129-129,129ZM129,9C62.8,9,9,62.8,9,129v208.9c0,66.2,53.8,120,120,120h334c66.2,0,120-53.8,120-120v-208.9c0-66.2-53.8-120-120-120H129Z"/>
</svg>