<svg width="82" height="82" viewBox="0 0 82 82" fill="none" xmlns="http://www.w3.org/2000/svg">
<path d="M41 81C63.0914 81 81 63.0914 81 41C81 18.9086 63.0914 1 41 1C18.9086 1 1 18.9086 1 41C1 63.0914 18.9086 81 41 81Z" stroke="black" stroke-opacity="0.4" stroke-miterlimit="10"/>
<path d="M35.6714 79.1172C52.641 79.1172 66.3975 65.3607 66.3975 48.3911C66.3975 31.4216 52.641 17.665 35.6714 17.665C18.7019 17.665 4.94531 31.4216 4.94531 48.3911C4.94531 65.3607 18.7019 79.1172 35.6714 79.1172Z" stroke="black" stroke-opacity="0.4" stroke-miterlimit="10"/>
<path d="M39.4562 67.7C52.9522 67.7 63.8928 56.7593 63.8928 43.2633C63.8928 29.7673 52.9522 18.8267 39.4562 18.8267C25.9602 18.8267 15.0195 29.7673 15.0195 43.2633C15.0195 56.7593 25.9602 67.7 39.4562 67.7Z" stroke="black" stroke-opacity="0.4" stroke-miterlimit="10"/>
<path d="M36.3346 66.4582C47.2199 66.4582 56.0441 57.6339 56.0441 46.7486C56.0441 35.8633 47.2199 27.0391 36.3346 27.0391C25.4493 27.0391 16.625 35.8633 16.625 46.7486C16.625 57.6339 25.4493 66.4582 36.3346 66.4582Z" stroke="black" stroke-opacity="0.4" stroke-miterlimit="10"/>
<path d="M39.5763 58.7266C47.9394 58.7266 54.719 51.947 54.719 43.5839C54.719 35.2208 47.9394 28.4412 39.5763 28.4412C31.2132 28.4412 24.4336 35.2208 24.4336 43.5839C24.4336 51.947 31.2132 58.7266 39.5763 58.7266Z" stroke="black" stroke-opacity="0.4" stroke-miterlimit="10"/>
</svg>
