<svg width="37" height="110" viewBox="0 0 37 110" fill="none" xmlns="http://www.w3.org/2000/svg">
<g clip-path="url(#clip0_4332_137)">
<path d="M36.6016 22.4653C38.9473 11.2766 30.7595 0.482804 19.2966 0.000155047C7.83365 -0.482494 18.7655 0.000155047 18.4999 0.000155047C18.2344 0.000155047 17.9688 0.000155047 17.7033 0.000155047C6.24035 0.482804 -1.90319 11.2766 0.398244 22.4653L18.4999 110.044L36.6016 22.4653Z" fill="#9C458B"/>
<path d="M18.5 32.0601C25.9558 32.0601 32 26.0159 32 18.5601C32 11.1042 25.9558 5.06006 18.5 5.06006C11.0442 5.06006 5 11.1042 5 18.5601C5 26.0159 11.0442 32.0601 18.5 32.0601Z" fill="white"/>
<path d="M28.8913 17.0384C29.4278 17.495 27.8182 18.0532 27.5499 18.1547C27.0133 18.3069 24.7598 18.7128 24.6525 19.1695C24.4916 19.8292 26.1012 19.7784 26.5304 19.6769L24.0087 21.0977C23.8477 21.7066 26.7451 21.0977 26.1012 22.1633C22.6136 22.9751 19.287 24.2437 15.7458 24.8526C13.8142 25.157 11.9899 25.4107 14.4044 23.4318C12.9021 23.0766 11.3461 23.8885 9.84372 23.7363C7.69752 23.5333 9.52179 22.1125 10.3266 21.5036C11.8826 20.3366 14.3507 19.3217 15.6921 18.1039C16.6043 17.2413 15.4775 17.3428 14.78 17.4443C12.8484 17.7995 10.8632 18.6621 8.93158 19.068C8.28772 19.2203 7.69752 19.3725 7 19.271C8.60965 17.2413 11.6143 16.125 14.0825 15.2624C17.0872 14.1968 23.1502 12.3194 26.2085 12.0657C26.5304 12.0657 28.623 11.9642 27.9255 12.6238C25.35 13.9939 22.7209 15.3131 20.2528 16.8354C19.6626 17.1906 17.4091 18.5606 17.1945 19.0173C16.8725 19.7784 18.4822 19.4232 18.9114 19.3217C20.6284 18.8651 21.9161 17.7995 23.955 17.3428C24.8671 17.1398 28.1938 16.4802 28.8913 17.0384Z" fill="#E12227"/>
</g>
<defs>
<clipPath id="clip0_4332_137">
<rect width="37" height="110" fill="white"/>
</clipPath>
</defs>
</svg>
