<?xml version="1.0" encoding="UTF-8"?>
<svg id="Layer_1" xmlns="http://www.w3.org/2000/svg" version="1.1" viewBox="0 0 330.2 74">
  <!-- Generator: Adobe Illustrator 29.2.1, SVG Export Plug-In . SVG Version: 2.1.0 Build 116)  -->
  <defs>
    <style>
      .st0 {
        fill: #80327e;
      }
    </style>
  </defs>
  <path class="st0" d="M315.9.2h11.8v43.8c0,2.3.2,3.7.5,4.4.4.7,1.1,1.2,2,1.4v8.7h-17.2v-8.7c1-.2,1.7-.7,2.1-1.6.4-.9.6-2.5.6-5v-5.5h.2V.2ZM291.5,14.4c0-.3,0-.5,0-.8V.2h12v43.8c0,2.3.2,3.7.5,4.4.4.7,1.1,1.2,2,1.4v8.7h-17.2v-8.7c1-.2,1.7-.7,2.1-1.6.4-.9.6-2.5.6-5V14.4ZM259.8,43.4c0,2.6.4,4.4,1.2,5.5.8,1.1,2.1,1.7,4,1.7s3-.5,3.8-1.5c.9-1,1.3-2.6,1.3-4.6v-.2h11.8v10.2c-2.4,1.6-5.1,2.9-8,3.7-2.9.9-5.9,1.3-8.9,1.3-6,0-10.4-1.2-13.1-3.6-2.7-2.4-4.1-6.3-4.1-11.7v-13.9c0-5.4,1.4-9.3,4.1-11.8,2.7-2.4,7.1-3.6,13.1-3.6s10.2,1.2,12.9,3.7c2.7,2.4,4.1,6.4,4.1,11.7v9.4h-22.1v3.7h0ZM259.8,30.8v1.2h10.3v-1.7c0-2.3-.4-4-1.3-5.1-.8-1.1-2.1-1.6-3.9-1.6s-3.1.6-3.9,1.7c-.8,1.1-1.2,3-1.2,5.5ZM201.5,58.7v-8.7c1-.2,1.7-.7,2.1-1.6.4-.9.6-2.5.6-5v-18.6h0V0h11.8v18.2c1.6-1,3.3-1.7,4.9-2.2,1.6-.5,3.2-.7,4.7-.7,4.6,0,7.9,1.1,9.9,3.4,2,2.3,3,6.2,3,11.8v13.3c0,2.4.2,4,.6,4.8.4.8,1.1,1.2,2.2,1.2v8.7s-13.5,0-13.5,0c-.4-1.2-.7-2.7-.9-4.6-.2-1.8-.3-4.6-.3-8.5v-13.5c0-2.9-.4-5-1.3-6.2-.8-1.2-2.2-1.8-4.2-1.8s-1.7.2-2.5.5c-.9.3-1.7.8-2.6,1.5v17.9c0,2.2.2,3.6.6,4.4.4.7,1.1,1.2,2.1,1.5v8.7h-17.2,0ZM161.9,56v-11.6h11.9c0,2.1.3,3.6,1,4.6.7.9,1.8,1.4,3.3,1.4s2.3-.4,3-1.1c.7-.7,1.1-1.7,1.1-2.9s-.4-2.2-1.2-2.9c-.8-.8-2.1-1.4-4.1-2-.6-.2-1.5-.5-2.7-.8-3.3-.9-5.8-1.9-7.4-2.9-1.8-1-3.1-2.3-3.9-3.9-.8-1.5-1.2-3.4-1.2-5.7,0-4.1,1.5-7.4,4.5-9.8,3-2.4,7-3.6,12-3.6s5.4.3,8.1,1c2.7.6,5.4,1.6,8,2.9v10.9h-11.1v-.2c0-1.8-.4-3.1-1.1-4-.8-.9-1.9-1.4-3.4-1.4s-2.2.4-3,1.1c-.7.7-1.1,1.7-1.1,3,0,2.1,2.4,3.9,7.3,5.3,1.9.5,3.5,1,4.5,1.4,3.4,1.1,5.7,2.6,7.1,4.3,1.3,1.8,2,4.2,2,7.4s-1.3,7.5-4,9.7c-2.6,2.2-6.5,3.4-11.4,3.4s-6.2-.3-9.2-.8c-3-.6-6.1-1.4-9.1-2.6h0ZM154.9,30.5v11.8c0,6.3-1,10.7-2.9,13.1-1.9,2.5-5.2,3.7-9.7,3.7s-3.4-.2-5.1-.7c-1.7-.5-3.6-1.2-5.5-2.2v3.2c0,2.2.2,3.7.6,4.4.4.7,1.1,1.2,2.1,1.5v8.7h-17.2v-8.7c1-.2,1.7-.7,2.1-1.5.4-.9.6-2.5.6-4.9v-29.1c0-.6,0-1.1,0-1.6v-12.5h11.9v2.7c1.9-1.1,3.7-1.9,5.4-2.4,1.8-.5,3.5-.8,5.2-.8,4.4,0,7.6,1.2,9.6,3.7,2,2.5,3,6.4,3,11.8h0ZM142.6,32.1c0-2.9-.4-5-1.3-6.2-.9-1.2-2.3-1.8-4.3-1.8s-1.8.2-2.7.5c-.9.3-1.8.8-2.7,1.5v21.8c1.1.6,2.2,1,3.1,1.3.9.3,1.8.4,2.7.4,1.9,0,3.2-.6,4-1.9.8-1.3,1.2-3.6,1.2-6.9v-8.7ZM109.7,30.2v13.9c0,5.4-1.4,9.3-4.1,11.7-2.7,2.4-7,3.6-13,3.6s-10.4-1.2-13.1-3.6c-2.7-2.4-4.1-6.3-4.1-11.7v-13.9c0-5.4,1.4-9.4,4.1-11.8,2.7-2.4,7.1-3.6,13.1-3.6s10.4,1.2,13,3.6c2.7,2.4,4.1,6.4,4.1,11.8h0ZM97.5,30.8c0-2.6-.4-4.5-1.1-5.6-.8-1.1-2-1.7-3.7-1.7s-3,.6-3.8,1.7c-.8,1.1-1.2,3-1.2,5.6v12.6c0,2.6.4,4.4,1.1,5.5.8,1.1,2,1.7,3.8,1.7s2.9-.5,3.7-1.7c.8-1.1,1.1-2.9,1.1-5.5v-12.6ZM62,44.1c0,2.2.2,3.6.6,4.4.4.7,1.1,1.2,2.1,1.5v8.7h-17.2v-8.7c1-.2,1.7-.7,2.1-1.6.4-.9.6-2.5.6-5v-13.7c0-.8,0-1.6-.1-2.2v-11.9h11.4v3.5c.9-1.2,1.9-2.2,3-2.8s2.4-.9,3.8-.9.9,0,1.6.1c0,0,.1,0,.2,0v12.6c-.1,0-.3,0-.5,0-.7,0-1.2-.1-1.5-.1-2.2,0-3.7.7-4.7,2-1,1.3-1.5,3.5-1.5,6.4v7.6h0ZM16.4,42.7c0,2.4.2,4,.6,4.7.4.7,1.2,1.1,2.3,1.4v9.9H0v-9.9c1.1-.3,1.9-.7,2.4-1.4.4-.7.6-2.3.6-4.6v-10.9h0V0h20c6.8,0,11.6,1.4,14.5,4.4,2.9,2.9,4.4,7.7,4.4,14.5s-1.4,14-4.1,17.1c-2.7,3-7.7,4.6-14.8,4.6h-6.6v2.2h0ZM16.4,27.9h5c2.9,0,4.8-.5,5.7-1.6,1-1,1.4-3,1.4-5.9s-.5-5.1-1.5-6.2c-1-1.1-2.9-1.7-5.6-1.7h-5.1v15.4h0Z"/>
</svg>