<?xml version="1.0" encoding="UTF-8"?>
<svg id="Layer_1" xmlns="http://www.w3.org/2000/svg" version="1.1" viewBox="0 0 37 36.7">
  <!-- Generator: Adobe Illustrator 29.2.1, SVG Export Plug-In . SVG Version: 2.1.0 Build 116)  -->
  <defs>
    <style>
      .st0 {
        fill: #0e0e0d;
      }
    </style>
  </defs>
  <path class="st0" d="M5.1,9.9c0-.2,0-.6,0-.9.3-3,4-4.4,6.2-2.5,2.8,2.4.8,7-2.8,6.7-1.7-.1-3.2-1.6-3.4-3.3ZM8.6,7.2c-2.9.3-2.5,4.8.6,4.5,2.8-.3,2.4-4.8-.6-4.5Z"/>
  <path class="st0" d="M31.1,31.7h-6.8v-10.2c0-.2-.4-.9-.6-1-1.2-1.2-3.4-.3-3.4,1.4v9.9h-6.7V13.8h6.4v1l1.4-.9c4.2-2,9.2.8,9.6,5.5v12.2ZM29.6,30.1v-10.6c-.5-5.2-7.3-6.4-9.8-2h-1.2v-2.2h-3.4v14.8h3.7v-8.4c0-2.4,2.7-3.9,4.8-3.1,1,.4,2.2,1.7,2.2,2.8v8.7h3.7Z"/>
  <path class="st0" d="M12.2,13.8v17.9h-6.7V13.8h6.7ZM10.7,15.3h-3.7v14.8h3.7v-14.8Z"/>
</svg>