<?xml version="1.0" encoding="UTF-8"?>
<svg id="Layer_1" xmlns="http://www.w3.org/2000/svg" version="1.1" viewBox="0 0 37 36.7">
  <!-- Generator: Adobe Illustrator 29.2.1, SVG Export Plug-In . SVG Version: 2.1.0 Build 116)  -->
  <path d="M29.5,7.4c-2.5-.5-6-.8-10.4-.8s-2.2,0-3.4,0c-3.6,0-6.4.3-8.3.7-4.8,1-5,6.3-5.2,10.2,0,.5,0,1.1,0,1.6,0,.5,0,1,0,1.5l.3,3.1c.2,4.1,1.9,6.5,4.9,7.1,4.3.9,9.9.8,14.3.7h.6c2.5,0,7.1-.2,9-1.3,1.9-1.1,2.8-2.9,3.1-5.9l.3-3.6v-3.1c-.2-3.9-.4-9.2-5.1-10.2ZM32.8,24.1c-.3,2.5-.9,4.6-3.8,5.1-2.8.5-6.1.7-9.2.7s-3,0-4.4,0c-2.4,0-5.1-.2-7.4-.6-3.3-.6-3.6-3.4-3.9-6.1h0c-.4-3.5-.3-6.9.3-10.1.2-1.1.4-2.2,1.3-3.1,1.2-1.2,3.4-1.4,5.2-1.5h.6c5.4-.5,11.3-.4,16.2.2,3.8.5,4.8,1.5,5.3,5.3.5,3.4.5,6.8,0,10.1Z"/>
  <path d="M23.4,18.3h-.1c-1.3-.9-2.6-1.7-4-2.5-1.3-.7-2.6-1.5-3.8-2.3-.1,0-.3-.1-.4-.1s0,0,0,0h0c-.4,0-.7.3-.7.7v9.8c0,.3.2.5.4.6.3.1.6.1.8,0,1.2-.8,2.5-1.6,3.8-2.3,1.4-.8,2.8-1.5,4-2.4.4-.3.5-.4.5-.8,0-.4-.2-.5-.6-.7ZM15.9,22.5v-6.8l5.7,3.4-5.7,3.4Z"/>
</svg>