<?xml version="1.0" encoding="UTF-8"?>
<svg id="Layer_1" xmlns="http://www.w3.org/2000/svg" version="1.1" viewBox="0 0 37 36.7">
  <!-- Generator: Adobe Illustrator 29.2.1, SVG Export Plug-In . SVG Version: 2.1.0 Build 116)  -->
  <defs>
    <style>
      .st0 {
        fill: #0e0e0d;
      }
    </style>
  </defs>
  <path class="st0" d="M24.1,8.9c.5,0,.7-.5.7-.9,0-.4-.2-.9-.7-1-.9-.2-3.7,0-4.5.2-1.3.4-2.8,2.1-2.8,3.5v4.4h-3.5c-.1,0-.4.3-.5.4-.2.4-.2.8,0,1.2,0,0,.3.3.5.3h3.4v12.7c0,.2.5.7.8.7.2,0,.6-.1.8-.4,0,0,.1-.2.1-.2v-12.8h5c.1,0,.4-.3.5-.3.3-.3.3-.8,0-1.2,0,0-.3-.3-.5-.4h-5v-4c0-.3.3-.9.4-1.1.7-1.3,2.3-1.2,3.7-1.2.6,0,1.1,0,1.5,0Z"/>
</svg>