<?xml version="1.0" encoding="UTF-8"?>
<svg id="Layer_1" xmlns="http://www.w3.org/2000/svg" version="1.1" viewBox="0 0 37 36.7">
  <!-- Generator: Adobe Illustrator 29.2.1, SVG Export Plug-In . SVG Version: 2.1.0 Build 116)  -->
  <defs>
    <style>
      .st0 {
        fill: #0e0e0d;
      }
    </style>
  </defs>
  <path class="st0" d="M24.8,6.7l1.4.3c2.2.6,4,2.4,4.7,4.7l.2,1.3v12.4c-.3,3.4-3,6.1-6.4,6.3-4-.2-8.1.2-12.1,0-3.5-.2-6.2-3-6.4-6.5-.2-4.1.1-8.4,0-12.6.4-3.1,3.1-5.6,6.2-5.9h12.4ZM12.5,8.2c-2.6.2-4.7,2.4-4.9,5-.2,3.9.2,8.1,0,12,.2,2.6,2.3,4.7,4.9,4.9h12.1c2.6-.2,4.7-2.3,4.9-4.9v-12.1c-.2-2.7-2.3-4.8-5-4.9-4-.2-8.1.2-12.1,0Z"/>
  <path class="st0" d="M18.1,12.3c5.6-.4,9.2,5.9,6.1,10.6-2.7,4-8.7,4-11.4,0-2.9-4.4,0-10.2,5.2-10.6ZM18.2,13.8c-4.1.3-6.4,5.1-4,8.5,2.2,3.1,6.9,2.9,8.9-.3,2.3-3.7-.6-8.5-4.9-8.2h0Z"/>
  <path class="st0" d="M25.5,9.9c2.6,0,2.8,3.9.2,4-2.6.1-2.8-3.9-.2-4ZM25.2,12.3c.5.5,1.3-.3.8-.8-.5-.5-1.3.3-.8.8Z"/>
</svg>